# MagicaVoxel @ Ephtracy

# group
o 

# material
mtllib attack0.mtl
usemtl palette

# normals
vn -1 0 0
vn 1 0 0
vn 0 0 1
vn 0 0 -1
vn 0 -1 0
vn 0 1 0

# texcoords
vt 0.0800781 0.5
vt 0.0839844 0.5
vt 0.255859 0.5
vt 0.845703 0.5
vt 0.849609 0.5
vt 0.853516 0.5
vt 0.884766 0.5
vt 0.888672 0.5
vt 0.892578 0.5
vt 0.896484 0.5
vt 0.900391 0.5
vt 0.904297 0.5
vt 0.916016 0.5
vt 0.919922 0.5
vt 0.923828 0.5
vt 0.927734 0.5
vt 0.931641 0.5
vt 0.935547 0.5
vt 0.951172 0.5
vt 0.955078 0.5
vt 0.958984 0.5
vt 0.962891 0.5
vt 0.966797 0.5
vt 0.974609 0.5
vt 0.990234 0.5
vt 0.994141 0.5

# verts
v -1 0 1
v -1 0 0.9
v -1 0 0.1
v -1 0 -0.4
v -1 0 -0.7
v -1 0 -1
v -1 0.1 1
v -1 0.1 0.9
v -1 0.1 0.1
v -1 0.1 -0.4
v -1 0.1 -0.7
v -1 0.1 -1
v -0.9 0.1 0.9
v -0.9 0.1 0.8
v -0.9 0.1 0.1
v -0.9 0.1 -0.4
v -0.9 0.1 -0.7
v -0.9 0.1 -0.9
v -0.9 0.2 0.9
v -0.9 0.2 0.8
v -0.9 0.2 0.1
v -0.9 0.2 -0.4
v -0.9 0.2 -0.7
v -0.9 0.2 -0.9
v 0.9 0.1 0.9
v 0.9 0.1 0.7
v 0.9 0.1 0.4
v 0.9 0.1 -0.1
v 0.9 0.1 -0.9
v 0.9 0.2 0.9
v 0.9 0.2 0.7
v 0.9 0.2 0.4
v 0.9 0.2 -0.1
v 0.9 0.2 -0.9
v 1 0 1
v 1 0 0.7
v 1 0 0.4
v 1 0 -0.1
v 1 0 -1
v 1 0.1 1
v 1 0.1 0.7
v 1 0.1 0.4
v 1 0.1 -0.1
v 1 0.1 -1
v -1 0 1
v -1 0.1 1
v -0.1 0 1
v -0.1 0.1 1
v 0.4 0 1
v 0.4 0.1 1
v 0.7 0 1
v 0.7 0.1 1
v 1 0 1
v 1 0.1 1
v -0.9 0.1 0.9
v -0.9 0.2 0.9
v -0.1 0.1 0.9
v -0.1 0.2 0.9
v 0.4 0.1 0.9
v 0.4 0.2 0.9
v 0.7 0.1 0.9
v 0.7 0.2 0.9
v 0.9 0.1 0.9
v 0.9 0.2 0.9
v -0.9 0.1 -0.9
v -0.9 0.2 -0.9
v -0.7 0.1 -0.9
v -0.7 0.2 -0.9
v -0.4 0.1 -0.9
v -0.4 0.2 -0.9
v 0.1 0.1 -0.9
v 0.1 0.2 -0.9
v 0.8 0.1 -0.9
v 0.8 0.2 -0.9
v 0.9 0.1 -0.9
v 0.9 0.2 -0.9
v -1 0 -1
v -1 0.1 -1
v -0.7 0 -1
v -0.7 0.1 -1
v -0.4 0 -1
v -0.4 0.1 -1
v 0.1 0 -1
v 0.1 0.1 -1
v 0.9 0 -1
v 0.9 0.1 -1
v 1 0 -1
v 1 0.1 -1
v -1 0 1
v -0.1 0 1
v 0.4 0 1
v 0.7 0 1
v 1 0 1
v -1 0 0.9
v -0.9 0 0.9
v -0.1 0 0.9
v 0.4 0 0.9
v 0.7 0 0.9
v -0.7 0 0.7
v -0.5 0 0.7
v 0 0 0.7
v 0.2 0 0.7
v 0.7 0 0.7
v 0.9 0 0.7
v 1 0 0.7
v -0.6 0 0.6
v -0.5 0 0.6
v -0.4 0 0.6
v -0.1 0 0.6
v 0 0 0.6
v 0.1 0 0.6
v -0.7 0 0.5
v -0.6 0 0.5
v -0.5 0 0.5
v -0.4 0 0.5
v -0.3 0 0.5
v -0.2 0 0.5
v -0.1 0 0.5
v 0 0 0.5
v 0.1 0 0.5
v 0.2 0 0.5
v -0.6 0 0.4
v -0.5 0 0.4
v -0.4 0 0.4
v -0.3 0 0.4
v -0.2 0 0.4
v -0.1 0 0.4
v 0 0 0.4
v 0.9 0 0.4
v 1 0 0.4
v -0.5 0 0.3
v -0.4 0 0.3
v -0.3 0 0.3
v -0.2 0 0.3
v -0.1 0 0.3
v 0.1 0 0.3
v 0.2 0 0.3
v -0.5 0 0.2
v -0.4 0 0.2
v -0.3 0 0.2
v -0.2 0 0.2
v -0.1 0 0.2
v 0.1 0 0.2
v 0.2 0 0.2
v 0.3 0 0.2
v -1 0 0.1
v -0.9 0 0.1
v -0.6 0 0.1
v -0.5 0 0.1
v -0.4 0 0.1
v -0.3 0 0.1
v -0.2 0 0.1
v 0.2 0 0.1
v 0.3 0 0.1
v 0.4 0 0.1
v -0.7 0 0
v -0.6 0 0
v -0.5 0 0
v -0.4 0 0
v 0.3 0 0
v 0.4 0 0
v 0.5 0 0
v -0.6 0 -0.1
v -0.5 0 -0.1
v -0.3 0 -0.1
v -0.2 0 -0.1
v 0.4 0 -0.1
v 0.5 0 -0.1
v 0.6 0 -0.1
v 0.9 0 -0.1
v 1 0 -0.1
v -0.7 0 -0.2
v -0.5 0 -0.2
v -0.3 0 -0.2
v -0.2 0 -0.2
v -0.1 0 -0.2
v 0.5 0 -0.2
v 0.6 0 -0.2
v 0.7 0 -0.2
v -0.2 0 -0.3
v -0.1 0 -0.3
v 0 0 -0.3
v -1 0 -0.4
v -0.9 0 -0.4
v -0.1 0 -0.4
v 0 0 -0.4
v 0.1 0 -0.4
v 0.6 0 -0.4
v 0.7 0 -0.4
v 0.8 0 -0.4
v 0 0 -0.5
v 0.1 0 -0.5
v 0.2 0 -0.5
v 0.1 0 -0.6
v 0.2 0 -0.6
v 0.4 0 -0.6
v -1 0 -0.7
v -0.9 0 -0.7
v 0.2 0 -0.7
v 0.4 0 -0.7
v 0.7 0 -0.7
v 0.4 0 -0.8
v 0.8 0 -0.8
v -0.9 0 -0.9
v -0.7 0 -0.9
v -0.4 0 -0.9
v 0.1 0 -0.9
v 0.9 0 -0.9
v -1 0 -1
v -0.7 0 -1
v -0.4 0 -1
v 0.1 0 -1
v 0.9 0 -1
v 1 0 -1
v -1 0.1 1
v -0.1 0.1 1
v 0.4 0.1 1
v 0.7 0.1 1
v 1 0.1 1
v -1 0.1 0.9
v -0.9 0.1 0.9
v -0.1 0.1 0.9
v 0.4 0.1 0.9
v 0.7 0.1 0.9
v 0.9 0.1 0.9
v -0.9 0.1 0.8
v 0.9 0.1 0.7
v 1 0.1 0.7
v 0.9 0.1 0.4
v 1 0.1 0.4
v -1 0.1 0.1
v -0.9 0.1 0.1
v 0.9 0.1 -0.1
v 1 0.1 -0.1
v -1 0.1 -0.4
v -0.9 0.1 -0.4
v -1 0.1 -0.7
v -0.9 0.1 -0.7
v -0.9 0.1 -0.9
v -0.7 0.1 -0.9
v -0.4 0.1 -0.9
v 0.1 0.1 -0.9
v 0.8 0.1 -0.9
v 0.9 0.1 -0.9
v -1 0.1 -1
v -0.7 0.1 -1
v -0.4 0.1 -1
v 0.1 0.1 -1
v 0.9 0.1 -1
v 1 0.1 -1
v -0.9 0.2 0.9
v -0.1 0.2 0.9
v 0.4 0.2 0.9
v 0.7 0.2 0.9
v 0.9 0.2 0.9
v -0.9 0.2 0.8
v -0.8 0.2 0.8
v -0.1 0.2 0.8
v 0.4 0.2 0.8
v 0.7 0.2 0.8
v 0.8 0.2 0.8
v -0.7 0.2 0.7
v -0.6 0.2 0.7
v -0.5 0.2 0.7
v 0 0.2 0.7
v 0.2 0.2 0.7
v 0.8 0.2 0.7
v 0.9 0.2 0.7
v -0.6 0.2 0.6
v -0.5 0.2 0.6
v -0.4 0.2 0.6
v -0.1 0.2 0.6
v 0 0.2 0.6
v 0.1 0.2 0.6
v -0.7 0.2 0.5
v -0.6 0.2 0.5
v -0.5 0.2 0.5
v -0.4 0.2 0.5
v -0.3 0.2 0.5
v -0.2 0.2 0.5
v -0.1 0.2 0.5
v 0 0.2 0.5
v 0.1 0.2 0.5
v 0.2 0.2 0.5
v -0.6 0.2 0.4
v -0.5 0.2 0.4
v -0.4 0.2 0.4
v -0.3 0.2 0.4
v -0.2 0.2 0.4
v -0.1 0.2 0.4
v 0 0.2 0.4
v 0.8 0.2 0.4
v 0.9 0.2 0.4
v -0.5 0.2 0.3
v -0.4 0.2 0.3
v -0.3 0.2 0.3
v -0.2 0.2 0.3
v -0.1 0.2 0.3
v 0 0.2 0.3
v 0.1 0.2 0.3
v 0.2 0.2 0.3
v -0.5 0.2 0.2
v -0.4 0.2 0.2
v -0.3 0.2 0.2
v -0.2 0.2 0.2
v -0.1 0.2 0.2
v 0 0.2 0.2
v 0.1 0.2 0.2
v 0.2 0.2 0.2
v 0.3 0.2 0.2
v -0.9 0.2 0.1
v -0.8 0.2 0.1
v -0.6 0.2 0.1
v -0.5 0.2 0.1
v -0.4 0.2 0.1
v -0.3 0.2 0.1
v -0.2 0.2 0.1
v -0.1 0.2 0.1
v 0 0.2 0.1
v 0.1 0.2 0.1
v 0.2 0.2 0.1
v 0.3 0.2 0.1
v 0.4 0.2 0.1
v -0.7 0.2 0
v -0.6 0.2 0
v -0.5 0.2 0
v -0.4 0.2 0
v -0.3 0.2 0
v -0.2 0.2 0
v -0.1 0.2 0
v 0 0.2 0
v 0.1 0.2 0
v 0.2 0.2 0
v 0.3 0.2 0
v 0.4 0.2 0
v 0.5 0.2 0
v -0.6 0.2 -0.1
v -0.5 0.2 -0.1
v -0.3 0.2 -0.1
v -0.2 0.2 -0.1
v -0.1 0.2 -0.1
v 0 0.2 -0.1
v 0.1 0.2 -0.1
v 0.2 0.2 -0.1
v 0.3 0.2 -0.1
v 0.4 0.2 -0.1
v 0.5 0.2 -0.1
v 0.6 0.2 -0.1
v 0.8 0.2 -0.1
v 0.9 0.2 -0.1
v -0.7 0.2 -0.2
v -0.5 0.2 -0.2
v -0.3 0.2 -0.2
v -0.2 0.2 -0.2
v -0.1 0.2 -0.2
v 0 0.2 -0.2
v 0.1 0.2 -0.2
v 0.2 0.2 -0.2
v 0.3 0.2 -0.2
v 0.4 0.2 -0.2
v 0.5 0.2 -0.2
v 0.6 0.2 -0.2
v 0.7 0.2 -0.2
v -0.2 0.2 -0.3
v -0.1 0.2 -0.3
v 0 0.2 -0.3
v 0.1 0.2 -0.3
v 0.2 0.2 -0.3
v 0.3 0.2 -0.3
v 0.4 0.2 -0.3
v -0.9 0.2 -0.4
v -0.8 0.2 -0.4
v -0.1 0.2 -0.4
v 0 0.2 -0.4
v 0.1 0.2 -0.4
v 0.2 0.2 -0.4
v 0.3 0.2 -0.4
v 0.4 0.2 -0.4
v 0.5 0.2 -0.4
v 0.6 0.2 -0.4
v 0.7 0.2 -0.4
v 0.8 0.2 -0.4
v 0 0.2 -0.5
v 0.1 0.2 -0.5
v 0.2 0.2 -0.5
v 0.4 0.2 -0.5
v 0.5 0.2 -0.5
v 0.1 0.2 -0.6
v 0.2 0.2 -0.6
v 0.4 0.2 -0.6
v 0.6 0.2 -0.6
v -0.9 0.2 -0.7
v -0.8 0.2 -0.7
v 0.2 0.2 -0.7
v 0.4 0.2 -0.7
v 0.6 0.2 -0.7
v 0.7 0.2 -0.7
v -0.8 0.2 -0.8
v -0.7 0.2 -0.8
v -0.4 0.2 -0.8
v 0.1 0.2 -0.8
v 0.4 0.2 -0.8
v 0.7 0.2 -0.8
v 0.8 0.2 -0.8
v -0.9 0.2 -0.9
v -0.7 0.2 -0.9
v -0.4 0.2 -0.9
v 0.1 0.2 -0.9
v 0.8 0.2 -0.9
v 0.9 0.2 -0.9

# faces
f 7/15/1 2/15/1 1/15/1
f 8/3/1 3/3/1 2/3/1
f 8/15/1 2/15/1 7/15/1
f 9/7/1 4/7/1 3/7/1
f 9/3/1 3/3/1 8/3/1
f 10/8/1 5/8/1 4/8/1
f 10/7/1 4/7/1 9/7/1
f 11/9/1 6/9/1 5/9/1
f 11/8/1 5/8/1 10/8/1
f 12/9/1 6/9/1 11/9/1
f 19/14/1 14/14/1 13/14/1
f 20/13/1 15/13/1 14/13/1
f 20/14/1 14/14/1 19/14/1
f 21/4/1 16/4/1 15/4/1
f 21/13/1 15/13/1 20/13/1
f 22/5/1 17/5/1 16/5/1
f 22/4/1 16/4/1 21/4/1
f 23/6/1 18/6/1 17/6/1
f 23/5/1 17/5/1 22/5/1
f 24/6/1 18/6/1 23/6/1
f 25/12/2 26/12/2 30/12/2
f 26/11/2 27/11/2 31/11/2
f 30/12/2 26/12/2 31/12/2
f 27/10/2 28/10/2 32/10/2
f 31/11/2 27/11/2 32/11/2
f 28/14/2 29/14/2 33/14/2
f 32/10/2 28/10/2 33/10/2
f 33/14/2 29/14/2 34/14/2
f 35/18/2 36/18/2 40/18/2
f 36/17/2 37/17/2 41/17/2
f 40/18/2 36/18/2 41/18/2
f 37/16/2 38/16/2 42/16/2
f 41/17/2 37/17/2 42/17/2
f 38/15/2 39/15/2 43/15/2
f 42/16/2 38/16/2 43/16/2
f 43/15/2 39/15/2 44/15/2
f 47/15/3 46/15/3 45/15/3
f 48/15/3 46/15/3 47/15/3
f 49/16/3 48/16/3 47/16/3
f 50/16/3 48/16/3 49/16/3
f 51/17/3 50/17/3 49/17/3
f 52/17/3 50/17/3 51/17/3
f 53/18/3 52/18/3 51/18/3
f 54/18/3 52/18/3 53/18/3
f 57/14/3 56/14/3 55/14/3
f 58/14/3 56/14/3 57/14/3
f 59/10/3 58/10/3 57/10/3
f 60/10/3 58/10/3 59/10/3
f 61/11/3 60/11/3 59/11/3
f 62/11/3 60/11/3 61/11/3
f 63/12/3 62/12/3 61/12/3
f 64/12/3 62/12/3 63/12/3
f 65/6/4 66/6/4 67/6/4
f 67/6/4 66/6/4 68/6/4
f 67/5/4 68/5/4 69/5/4
f 69/5/4 68/5/4 70/5/4
f 69/4/4 70/4/4 71/4/4
f 71/4/4 70/4/4 72/4/4
f 71/13/4 72/13/4 73/13/4
f 73/13/4 72/13/4 74/13/4
f 73/14/4 74/14/4 75/14/4
f 75/14/4 74/14/4 76/14/4
f 77/9/4 78/9/4 79/9/4
f 79/9/4 78/9/4 80/9/4
f 79/8/4 80/8/4 81/8/4
f 81/8/4 80/8/4 82/8/4
f 81/7/4 82/7/4 83/7/4
f 83/7/4 82/7/4 84/7/4
f 83/3/4 84/3/4 85/3/4
f 85/3/4 84/3/4 86/3/4
f 85/15/4 86/15/4 87/15/4
f 87/15/4 86/15/4 88/15/4
f 94/15/5 90/15/5 89/15/5
f 95/15/5 90/15/5 94/15/5
f 96/16/5 91/16/5 90/16/5
f 96/15/5 90/15/5 95/15/5
f 97/17/5 92/17/5 91/17/5
f 97/16/5 91/16/5 96/16/5
f 98/18/5 93/18/5 92/18/5
f 98/17/5 92/17/5 97/17/5
f 99/2/5 97/2/5 96/2/5
f 99/2/5 96/2/5 95/2/5
f 99/2/5 98/2/5 97/2/5
f 100/2/5 98/2/5 99/2/5
f 101/2/5 98/2/5 100/2/5
f 102/2/5 98/2/5 101/2/5
f 103/18/5 93/18/5 98/18/5
f 103/2/5 98/2/5 102/2/5
f 104/18/5 93/18/5 103/18/5
f 105/18/5 93/18/5 104/18/5
f 106/25/5 100/25/5 99/25/5
f 107/2/5 101/2/5 100/2/5
f 107/25/5 100/25/5 106/25/5
f 108/2/5 101/2/5 107/2/5
f 109/2/5 101/2/5 108/2/5
f 110/25/5 102/25/5 101/25/5
f 110/2/5 101/2/5 109/2/5
f 111/25/5 102/25/5 110/25/5
f 112/2/5 99/2/5 95/2/5
f 112/25/5 106/25/5 99/25/5
f 113/2/5 107/2/5 106/2/5
f 113/25/5 106/25/5 112/25/5
f 114/25/5 108/25/5 107/25/5
f 114/2/5 107/2/5 113/2/5
f 115/2/5 109/2/5 108/2/5
f 115/25/5 108/25/5 114/25/5
f 116/2/5 109/2/5 115/2/5
f 117/2/5 109/2/5 116/2/5
f 118/25/5 110/25/5 109/25/5
f 118/2/5 109/2/5 117/2/5
f 119/2/5 111/2/5 110/2/5
f 119/25/5 110/25/5 118/25/5
f 120/25/5 102/25/5 111/25/5
f 120/2/5 111/2/5 119/2/5
f 121/2/5 103/2/5 102/2/5
f 121/25/5 102/25/5 120/25/5
f 121/2/5 104/2/5 103/2/5
f 122/25/5 114/25/5 113/25/5
f 122/2/5 113/2/5 112/2/5
f 123/2/5 115/2/5 114/2/5
f 123/25/5 114/25/5 122/25/5
f 124/25/5 116/25/5 115/25/5
f 124/2/5 115/2/5 123/2/5
f 125/2/5 117/2/5 116/2/5
f 125/25/5 116/25/5 124/25/5
f 126/25/5 118/25/5 117/25/5
f 126/2/5 117/2/5 125/2/5
f 127/2/5 119/2/5 118/2/5
f 127/25/5 118/25/5 126/25/5
f 128/25/5 120/25/5 119/25/5
f 128/2/5 119/2/5 127/2/5
f 129/2/5 104/2/5 121/2/5
f 129/17/5 105/17/5 104/17/5
f 129/2/5 121/2/5 120/2/5
f 130/17/5 105/17/5 129/17/5
f 131/2/5 123/2/5 122/2/5
f 131/25/5 124/25/5 123/25/5
f 132/2/5 125/2/5 124/2/5
f 132/25/5 124/25/5 131/25/5
f 133/25/5 126/25/5 125/25/5
f 133/2/5 125/2/5 132/2/5
f 134/2/5 127/2/5 126/2/5
f 134/25/5 126/25/5 133/25/5
f 135/25/5 128/25/5 127/25/5
f 135/2/5 127/2/5 134/2/5
f 136/25/5 120/25/5 128/25/5
f 136/25/5 128/25/5 135/25/5
f 136/2/5 129/2/5 120/2/5
f 137/2/5 129/2/5 136/2/5
f 138/2/5 132/2/5 131/2/5
f 138/2/5 131/2/5 122/2/5
f 139/25/5 133/25/5 132/25/5
f 139/2/5 132/2/5 138/2/5
f 140/2/5 134/2/5 133/2/5
f 140/25/5 133/25/5 139/25/5
f 141/25/5 135/25/5 134/25/5
f 141/2/5 134/2/5 140/2/5
f 142/2/5 136/2/5 135/2/5
f 142/25/5 135/25/5 141/25/5
f 143/25/5 137/25/5 136/25/5
f 143/2/5 136/2/5 142/2/5
f 144/2/5 129/2/5 137/2/5
f 144/25/5 137/25/5 143/25/5
f 145/2/5 129/2/5 144/2/5
f 146/3/5 95/3/5 94/3/5
f 147/2/5 138/2/5 122/2/5
f 147/3/5 95/3/5 146/3/5
f 147/2/5 112/2/5 95/2/5
f 147/2/5 122/2/5 112/2/5
f 148/2/5 138/2/5 147/2/5
f 149/25/5 139/25/5 138/25/5
f 149/2/5 138/2/5 148/2/5
f 150/2/5 140/2/5 139/2/5
f 150/25/5 139/25/5 149/25/5
f 151/25/5 141/25/5 140/25/5
f 151/2/5 140/2/5 150/2/5
f 152/2/5 143/2/5 142/2/5
f 152/25/5 141/25/5 151/25/5
f 152/2/5 142/2/5 141/2/5
f 152/2/5 144/2/5 143/2/5
f 153/25/5 145/25/5 144/25/5
f 153/2/5 144/2/5 152/2/5
f 154/2/5 129/2/5 145/2/5
f 154/25/5 145/25/5 153/25/5
f 155/2/5 129/2/5 154/2/5
f 156/2/5 148/2/5 147/2/5
f 157/25/5 149/25/5 148/25/5
f 157/2/5 148/2/5 156/2/5
f 158/2/5 150/2/5 149/2/5
f 158/25/5 149/25/5 157/25/5
f 159/25/5 151/25/5 150/25/5
f 159/2/5 150/2/5 158/2/5
f 160/2/5 153/2/5 152/2/5
f 160/2/5 152/2/5 151/2/5
f 160/2/5 154/2/5 153/2/5
f 160/25/5 155/25/5 154/25/5
f 161/2/5 129/2/5 155/2/5
f 161/25/5 155/25/5 160/25/5
f 162/2/5 129/2/5 161/2/5
f 163/2/5 158/2/5 157/2/5
f 163/25/5 157/25/5 156/25/5
f 164/25/5 159/25/5 158/25/5
f 164/2/5 158/2/5 163/2/5
f 165/25/5 151/25/5 159/25/5
f 165/25/5 159/25/5 164/25/5
f 165/2/5 160/2/5 151/2/5
f 165/2/5 161/2/5 160/2/5
f 166/2/5 161/2/5 165/2/5
f 167/25/5 162/25/5 161/25/5
f 167/2/5 161/2/5 166/2/5
f 168/2/5 129/2/5 162/2/5
f 168/25/5 162/25/5 167/25/5
f 169/2/5 129/2/5 168/2/5
f 170/16/5 130/16/5 129/16/5
f 170/2/5 129/2/5 169/2/5
f 171/16/5 130/16/5 170/16/5
f 172/2/5 156/2/5 147/2/5
f 172/25/5 164/25/5 163/25/5
f 172/25/5 163/25/5 156/25/5
f 173/2/5 165/2/5 164/2/5
f 173/25/5 164/25/5 172/25/5
f 174/25/5 166/25/5 165/25/5
f 174/2/5 165/2/5 173/2/5
f 175/2/5 167/2/5 166/2/5
f 175/25/5 166/25/5 174/25/5
f 175/2/5 168/2/5 167/2/5
f 176/2/5 168/2/5 175/2/5
f 177/25/5 169/25/5 168/25/5
f 177/2/5 168/2/5 176/2/5
f 178/2/5 170/2/5 169/2/5
f 178/25/5 169/25/5 177/25/5
f 179/2/5 170/2/5 178/2/5
f 180/2/5 174/2/5 173/2/5
f 180/25/5 176/25/5 175/25/5
f 180/2/5 173/2/5 172/2/5
f 180/2/5 175/2/5 174/2/5
f 181/2/5 177/2/5 176/2/5
f 181/25/5 176/25/5 180/25/5
f 181/2/5 178/2/5 177/2/5
f 182/2/5 178/2/5 181/2/5
f 183/7/5 147/7/5 146/7/5
f 184/2/5 180/2/5 172/2/5
f 184/7/5 147/7/5 183/7/5
f 184/2/5 172/2/5 147/2/5
f 184/2/5 181/2/5 180/2/5
f 185/25/5 182/25/5 181/25/5
f 185/2/5 181/2/5 184/2/5
f 186/2/5 178/2/5 182/2/5
f 186/25/5 182/25/5 185/25/5
f 187/2/5 178/2/5 186/2/5
f 188/25/5 179/25/5 178/25/5
f 188/2/5 178/2/5 187/2/5
f 189/2/5 170/2/5 179/2/5
f 189/25/5 179/25/5 188/25/5
f 190/2/5 170/2/5 189/2/5
f 191/2/5 185/2/5 184/2/5
f 191/25/5 187/25/5 186/25/5
f 191/2/5 186/2/5 185/2/5
f 192/2/5 188/2/5 187/2/5
f 192/25/5 187/25/5 191/25/5
f 192/2/5 189/2/5 188/2/5
f 193/2/5 189/2/5 192/2/5
f 194/2/5 192/2/5 191/2/5
f 194/25/5 193/25/5 192/25/5
f 195/2/5 189/2/5 193/2/5
f 195/25/5 193/25/5 194/25/5
f 196/2/5 189/2/5 195/2/5
f 197/8/5 184/8/5 183/8/5
f 198/2/5 191/2/5 184/2/5
f 198/8/5 184/8/5 197/8/5
f 198/2/5 194/2/5 191/2/5
f 198/2/5 195/2/5 194/2/5
f 199/25/5 196/25/5 195/25/5
f 199/2/5 195/2/5 198/2/5
f 200/2/5 189/2/5 196/2/5
f 200/25/5 196/25/5 199/25/5
f 201/25/5 190/25/5 189/25/5
f 201/2/5 189/2/5 200/2/5
f 202/2/5 200/2/5 199/2/5
f 202/2/5 199/2/5 198/2/5
f 202/25/5 201/25/5 200/25/5
f 203/2/5 170/2/5 190/2/5
f 203/25/5 201/25/5 202/25/5
f 203/25/5 190/25/5 201/25/5
f 204/2/5 202/2/5 198/2/5
f 204/9/5 198/9/5 197/9/5
f 204/2/5 203/2/5 202/2/5
f 205/2/5 203/2/5 204/2/5
f 206/2/5 203/2/5 205/2/5
f 207/2/5 203/2/5 206/2/5
f 208/15/5 171/15/5 170/15/5
f 208/2/5 203/2/5 207/2/5
f 208/2/5 170/2/5 203/2/5
f 209/9/5 204/9/5 197/9/5
f 209/9/5 205/9/5 204/9/5
f 210/8/5 206/8/5 205/8/5
f 210/9/5 205/9/5 209/9/5
f 211/7/5 207/7/5 206/7/5
f 211/8/5 206/8/5 210/8/5
f 212/3/5 208/3/5 207/3/5
f 212/7/5 207/7/5 211/7/5
f 213/15/5 171/15/5 208/15/5
f 213/3/5 208/3/5 212/3/5
f 214/15/5 171/15/5 213/15/5
f 215/15/6 216/15/6 220/15/6
f 220/15/6 216/15/6 221/15/6
f 216/16/6 217/16/6 222/16/6
f 221/15/6 216/15/6 222/15/6
f 217/17/6 218/17/6 223/17/6
f 222/16/6 217/16/6 223/16/6
f 218/18/6 219/18/6 224/18/6
f 223/17/6 218/17/6 224/17/6
f 224/18/6 219/18/6 225/18/6
f 220/3/6 221/3/6 226/3/6
f 225/18/6 219/18/6 227/18/6
f 227/18/6 219/18/6 228/18/6
f 227/17/6 228/17/6 229/17/6
f 229/17/6 228/17/6 230/17/6
f 220/3/6 226/3/6 231/3/6
f 231/3/6 226/3/6 232/3/6
f 229/16/6 230/16/6 233/16/6
f 233/16/6 230/16/6 234/16/6
f 231/7/6 232/7/6 235/7/6
f 235/7/6 232/7/6 236/7/6
f 235/8/6 236/8/6 237/8/6
f 237/8/6 236/8/6 238/8/6
f 237/9/6 238/9/6 239/9/6
f 233/15/6 234/15/6 244/15/6
f 237/9/6 239/9/6 245/9/6
f 239/9/6 240/9/6 245/9/6
f 240/8/6 241/8/6 246/8/6
f 245/9/6 240/9/6 246/9/6
f 241/7/6 242/7/6 247/7/6
f 246/8/6 241/8/6 247/8/6
f 242/3/6 243/3/6 248/3/6
f 247/7/6 242/7/6 248/7/6
f 243/3/6 244/3/6 248/3/6
f 244/15/6 234/15/6 249/15/6
f 248/3/6 244/3/6 249/3/6
f 249/15/6 234/15/6 250/15/6
f 251/14/6 252/14/6 256/14/6
f 256/14/6 252/14/6 257/14/6
f 252/10/6 253/10/6 258/10/6
f 257/14/6 252/14/6 258/14/6
f 253/11/6 254/11/6 259/11/6
f 258/10/6 253/10/6 259/10/6
f 254/12/6 255/12/6 260/12/6
f 259/11/6 254/11/6 260/11/6
f 260/12/6 255/12/6 261/12/6
f 258/1/6 259/1/6 262/1/6
f 257/1/6 258/1/6 262/1/6
f 260/1/6 261/1/6 262/1/6
f 259/1/6 260/1/6 262/1/6
f 262/1/6 261/1/6 263/1/6
f 263/1/6 261/1/6 264/1/6
f 264/1/6 261/1/6 265/1/6
f 265/1/6 261/1/6 266/1/6
f 261/12/6 255/12/6 267/12/6
f 266/1/6 261/1/6 267/1/6
f 267/12/6 255/12/6 268/12/6
f 262/26/6 263/26/6 269/26/6
f 263/20/6 264/20/6 269/20/6
f 264/1/6 265/1/6 270/1/6
f 269/20/6 264/20/6 270/20/6
f 270/1/6 265/1/6 271/1/6
f 271/1/6 265/1/6 272/1/6
f 265/20/6 266/20/6 273/20/6
f 272/1/6 265/1/6 273/1/6
f 273/20/6 266/20/6 274/20/6
f 257/1/6 262/1/6 275/1/6
f 262/26/6 269/26/6 275/26/6
f 269/25/6 270/25/6 276/25/6
f 275/26/6 269/26/6 276/26/6
f 270/20/6 271/20/6 277/20/6
f 276/25/6 270/25/6 277/25/6
f 271/1/6 272/1/6 278/1/6
f 277/20/6 271/20/6 278/20/6
f 278/1/6 272/1/6 279/1/6
f 279/1/6 272/1/6 280/1/6
f 272/20/6 273/20/6 281/20/6
f 280/1/6 272/1/6 281/1/6
f 273/26/6 274/26/6 282/26/6
f 281/20/6 273/20/6 282/20/6
f 274/20/6 266/20/6 283/20/6
f 282/26/6 274/26/6 283/26/6
f 266/1/6 267/1/6 284/1/6
f 283/20/6 266/20/6 284/20/6
f 276/26/6 277/26/6 285/26/6
f 275/1/6 276/1/6 285/1/6
f 277/25/6 278/25/6 286/25/6
f 285/26/6 277/26/6 286/26/6
f 278/20/6 279/20/6 287/20/6
f 286/25/6 278/25/6 287/25/6
f 279/1/6 280/1/6 288/1/6
f 287/20/6 279/20/6 288/20/6
f 280/20/6 281/20/6 289/20/6
f 288/1/6 280/1/6 289/1/6
f 281/26/6 282/26/6 290/26/6
f 289/20/6 281/20/6 290/20/6
f 282/20/6 283/20/6 291/20/6
f 290/26/6 282/26/6 291/26/6
f 284/1/6 267/1/6 292/1/6
f 267/11/6 268/11/6 292/11/6
f 283/1/6 284/1/6 292/1/6
f 292/11/6 268/11/6 293/11/6
f 285/1/6 286/1/6 294/1/6
f 286/26/6 287/26/6 294/26/6
f 287/25/6 288/25/6 295/25/6
f 294/26/6 287/26/6 295/26/6
f 288/20/6 289/20/6 296/20/6
f 295/25/6 288/25/6 296/25/6
f 289/26/6 290/26/6 297/26/6
f 296/20/6 289/20/6 297/20/6
f 290/20/6 291/20/6 298/20/6
f 297/26/6 290/26/6 298/26/6
f 291/20/6 283/20/6 299/20/6
f 298/20/6 291/20/6 299/20/6
f 283/1/6 292/1/6 300/1/6
f 299/20/6 283/20/6 300/20/6
f 300/1/6 292/1/6 301/1/6
f 294/1/6 295/1/6 302/1/6
f 285/1/6 294/1/6 302/1/6
f 295/26/6 296/26/6 303/26/6
f 302/1/6 295/1/6 303/1/6
f 296/25/6 297/25/6 304/25/6
f 303/26/6 296/26/6 304/26/6
f 297/20/6 298/20/6 305/20/6
f 304/25/6 297/25/6 305/25/6
f 298/22/6 299/22/6 306/22/6
f 305/20/6 298/20/6 306/20/6
f 299/21/6 300/21/6 307/21/6
f 306/22/6 299/22/6 307/22/6
f 300/19/6 301/19/6 308/19/6
f 307/21/6 300/21/6 308/21/6
f 301/1/6 292/1/6 309/1/6
f 308/19/6 301/19/6 309/19/6
f 309/1/6 292/1/6 310/1/6
f 256/13/6 257/13/6 311/13/6
f 285/1/6 302/1/6 312/1/6
f 311/13/6 257/13/6 312/13/6
f 257/1/6 275/1/6 312/1/6
f 275/1/6 285/1/6 312/1/6
f 312/1/6 302/1/6 313/1/6
f 302/26/6 303/26/6 314/26/6
f 313/1/6 302/1/6 314/1/6
f 303/25/6 304/25/6 315/25/6
f 314/26/6 303/26/6 315/26/6
f 304/26/6 305/26/6 316/26/6
f 315/25/6 304/25/6 316/25/6
f 305/23/6 306/23/6 317/23/6
f 316/26/6 305/26/6 317/26/6
f 307/22/6 308/22/6 318/22/6
f 317/23/6 306/23/6 318/23/6
f 306/22/6 307/22/6 318/22/6
f 318/22/6 308/22/6 319/22/6
f 308/21/6 309/21/6 320/21/6
f 319/22/6 308/22/6 320/22/6
f 309/19/6 310/19/6 321/19/6
f 320/21/6 309/21/6 321/21/6
f 310/1/6 292/1/6 322/1/6
f 321/19/6 310/19/6 322/19/6
f 322/1/6 292/1/6 323/1/6
f 312/1/6 313/1/6 324/1/6
f 313/26/6 314/26/6 325/26/6
f 324/1/6 313/1/6 325/1/6
f 314/25/6 315/25/6 326/25/6
f 325/26/6 314/26/6 326/26/6
f 315/26/6 316/26/6 327/26/6
f 326/25/6 315/25/6 327/25/6
f 316/22/6 317/22/6 328/22/6
f 327/26/6 316/26/6 328/26/6
f 317/22/6 318/22/6 328/22/6
f 328/22/6 318/22/6 329/22/6
f 318/23/6 319/23/6 330/23/6
f 329/22/6 318/22/6 330/22/6
f 320/22/6 321/22/6 331/22/6
f 330/23/6 319/23/6 331/23/6
f 319/22/6 320/22/6 331/22/6
f 331/22/6 321/22/6 332/22/6
f 321/21/6 322/21/6 333/21/6
f 332/22/6 321/22/6 333/22/6
f 322/19/6 323/19/6 334/19/6
f 333/21/6 322/21/6 334/21/6
f 323/1/6 292/1/6 335/1/6
f 334/19/6 323/19/6 335/19/6
f 335/1/6 292/1/6 336/1/6
f 324/26/6 325/26/6 337/26/6
f 325/25/6 326/25/6 337/25/6
f 326/26/6 327/26/6 338/26/6
f 337/25/6 326/25/6 338/25/6
f 327/26/6 328/26/6 338/26/6
f 328/24/6 329/24/6 339/24/6
f 338/26/6 328/26/6 339/26/6
f 329/22/6 330/22/6 340/22/6
f 339/24/6 329/24/6 340/24/6
f 330/22/6 331/22/6 340/22/6
f 340/22/6 331/22/6 341/22/6
f 331/23/6 332/23/6 342/23/6
f 341/22/6 331/22/6 342/22/6
f 333/22/6 334/22/6 343/22/6
f 342/23/6 332/23/6 343/23/6
f 332/22/6 333/22/6 343/22/6
f 343/22/6 334/22/6 344/22/6
f 334/21/6 335/21/6 345/21/6
f 344/22/6 334/22/6 345/22/6
f 335/19/6 336/19/6 346/19/6
f 345/21/6 335/21/6 346/21/6
f 336/1/6 292/1/6 347/1/6
f 346/19/6 336/19/6 347/19/6
f 347/1/6 292/1/6 348/1/6
f 292/10/6 293/10/6 349/10/6
f 348/1/6 292/1/6 349/1/6
f 349/10/6 293/10/6 350/10/6
f 312/1/6 324/1/6 351/1/6
f 324/26/6 337/26/6 351/26/6
f 337/26/6 338/26/6 351/26/6
f 338/1/6 339/1/6 352/1/6
f 351/26/6 338/26/6 352/26/6
f 339/26/6 340/26/6 353/26/6
f 352/1/6 339/1/6 353/1/6
f 340/24/6 341/24/6 354/24/6
f 353/26/6 340/26/6 354/26/6
f 341/22/6 342/22/6 355/22/6
f 354/24/6 341/24/6 355/24/6
f 342/22/6 343/22/6 355/22/6
f 355/22/6 343/22/6 356/22/6
f 343/23/6 344/23/6 357/23/6
f 356/22/6 343/22/6 357/22/6
f 345/22/6 346/22/6 358/22/6
f 357/23/6 344/23/6 358/23/6
f 344/22/6 345/22/6 358/22/6
f 358/22/6 346/22/6 359/22/6
f 346/21/6 347/21/6 360/21/6
f 359/22/6 346/22/6 360/22/6
f 347/19/6 348/19/6 361/19/6
f 360/21/6 347/21/6 361/21/6
f 348/1/6 349/1/6 362/1/6
f 361/19/6 348/19/6 362/19/6
f 362/1/6 349/1/6 363/1/6
f 353/1/6 354/1/6 364/1/6
f 354/26/6 355/26/6 364/26/6
f 351/1/6 352/1/6 364/1/6
f 352/1/6 353/1/6 364/1/6
f 355/24/6 356/24/6 365/24/6
f 364/26/6 355/26/6 365/26/6
f 356/22/6 357/22/6 366/22/6
f 365/24/6 356/24/6 366/24/6
f 357/22/6 358/22/6 366/22/6
f 366/22/6 358/22/6 367/22/6
f 358/23/6 359/23/6 368/23/6
f 367/22/6 358/22/6 368/22/6
f 359/22/6 360/22/6 369/22/6
f 368/23/6 359/23/6 369/23/6
f 360/22/6 361/22/6 369/22/6
f 369/22/6 361/22/6 370/22/6
f 311/4/6 312/4/6 371/4/6
f 312/1/6 351/1/6 372/1/6
f 371/4/6 312/4/6 372/4/6
f 351/1/6 364/1/6 372/1/6
f 364/1/6 365/1/6 372/1/6
f 365/26/6 366/26/6 373/26/6
f 372/1/6 365/1/6 373/1/6
f 366/24/6 367/24/6 374/24/6
f 373/26/6 366/26/6 374/26/6
f 367/22/6 368/22/6 375/22/6
f 374/24/6 367/24/6 375/24/6
f 368/22/6 369/22/6 375/22/6
f 375/22/6 369/22/6 376/22/6
f 369/23/6 370/23/6 377/23/6
f 376/22/6 369/22/6 377/22/6
f 370/22/6 361/22/6 378/22/6
f 377/23/6 370/23/6 378/23/6
f 361/21/6 362/21/6 379/21/6
f 378/22/6 361/22/6 379/22/6
f 362/19/6 363/19/6 380/19/6
f 379/21/6 362/21/6 380/21/6
f 363/1/6 349/1/6 381/1/6
f 380/19/6 363/19/6 381/19/6
f 349/14/6 350/14/6 382/14/6
f 381/1/6 349/1/6 382/1/6
f 373/1/6 374/1/6 383/1/6
f 372/1/6 373/1/6 383/1/6
f 374/26/6 375/26/6 383/26/6
f 375/24/6 376/24/6 384/24/6
f 383/26/6 375/26/6 384/26/6
f 376/22/6 377/22/6 385/22/6
f 384/24/6 376/24/6 385/24/6
f 377/22/6 378/22/6 385/22/6
f 378/23/6 379/23/6 386/23/6
f 385/22/6 378/22/6 386/22/6
f 379/22/6 380/22/6 387/22/6
f 386/23/6 379/23/6 387/23/6
f 383/1/6 384/1/6 388/1/6
f 384/26/6 385/26/6 388/26/6
f 385/24/6 386/24/6 389/24/6
f 388/26/6 385/26/6 389/26/6
f 386/22/6 387/22/6 390/22/6
f 389/24/6 386/24/6 390/24/6
f 380/21/6 381/21/6 391/21/6
f 390/22/6 387/22/6 391/22/6
f 387/22/6 380/22/6 391/22/6
f 371/5/6 372/5/6 392/5/6
f 383/1/6 388/1/6 393/1/6
f 392/5/6 372/5/6 393/5/6
f 388/1/6 389/1/6 393/1/6
f 372/1/6 383/1/6 393/1/6
f 389/26/6 390/26/6 394/26/6
f 393/1/6 389/1/6 394/1/6
f 390/24/6 391/24/6 395/24/6
f 394/26/6 390/26/6 395/26/6
f 391/21/6 381/21/6 396/21/6
f 395/24/6 391/24/6 396/24/6
f 381/19/6 382/19/6 397/19/6
f 396/21/6 381/21/6 397/21/6
f 392/6/6 393/6/6 398/6/6
f 393/1/6 394/1/6 398/1/6
f 394/1/6 395/1/6 398/1/6
f 398/1/6 395/1/6 399/1/6
f 399/1/6 395/1/6 400/1/6
f 400/1/6 395/1/6 401/1/6
f 396/26/6 397/26/6 402/26/6
f 401/1/6 395/1/6 402/1/6
f 395/26/6 396/26/6 402/26/6
f 397/19/6 382/19/6 403/19/6
f 402/26/6 397/26/6 403/26/6
f 382/14/6 350/14/6 404/14/6
f 403/19/6 382/19/6 404/19/6
f 392/6/6 398/6/6 405/6/6
f 398/6/6 399/6/6 405/6/6
f 399/5/6 400/5/6 406/5/6
f 405/6/6 399/6/6 406/6/6
f 400/4/6 401/4/6 407/4/6
f 406/5/6 400/5/6 407/5/6
f 401/13/6 402/13/6 408/13/6
f 407/4/6 401/4/6 408/4/6
f 402/13/6 403/13/6 408/13/6
f 403/13/6 404/13/6 408/13/6
f 404/14/6 350/14/6 409/14/6
f 408/13/6 404/13/6 409/13/6
f 409/14/6 350/14/6 410/14/6
