# MagicaVoxel @ Ephtracy

# group
o 

# material
mtllib attack1.mtl
usemtl palette

# normals
vn -1 0 0
vn 1 0 0
vn 0 0 1
vn 0 0 -1
vn 0 -1 0
vn 0 1 0

# texcoords
vt 0.111328 0.5
vt 0.255859 0.5
vt 0.595703 0.5
vt 0.599609 0.5
vt 0.603516 0.5
vt 0.642578 0.5
vt 0.646484 0.5
vt 0.650391 0.5
vt 0.654297 0.5
vt 0.845703 0.5
vt 0.849609 0.5
vt 0.853516 0.5
vt 0.884766 0.5
vt 0.888672 0.5
vt 0.892578 0.5
vt 0.896484 0.5
vt 0.900391 0.5
vt 0.904297 0.5
vt 0.916016 0.5
vt 0.919922 0.5
vt 0.923828 0.5
vt 0.927734 0.5
vt 0.931641 0.5
vt 0.935547 0.5
vt 0.955078 0.5
vt 0.990234 0.5
vt 0.994141 0.5

# verts
v -1 0 1
v -1 0 0.9
v -1 0 0.1
v -1 0 -0.4
v -1 0 -0.7
v -1 0 -1
v -1 0.1 1
v -1 0.1 0.9
v -1 0.1 0.1
v -1 0.1 -0.4
v -1 0.1 -0.7
v -1 0.1 -1
v 1 0 1
v 1 0 0.7
v 1 0 0.4
v 1 0 -0.1
v 1 0 -1
v 1 0.1 1
v 1 0.1 0.7
v 1 0.1 0.4
v 1 0.1 -0.1
v 1 0.1 -1
v -1 0 1
v -1 0.1 1
v -0.1 0 1
v -0.1 0.1 1
v 0.4 0 1
v 0.4 0.1 1
v 0.7 0 1
v 0.7 0.1 1
v 1 0 1
v 1 0.1 1
v -1 0 -1
v -1 0.1 -1
v -0.7 0 -1
v -0.7 0.1 -1
v -0.4 0 -1
v -0.4 0.1 -1
v 0.1 0 -1
v 0.1 0.1 -1
v 0.9 0 -1
v 0.9 0.1 -1
v 1 0 -1
v 1 0.1 -1
v -1 0 1
v -0.1 0 1
v 0.4 0 1
v 0.7 0 1
v 1 0 1
v -1 0 0.9
v -0.9 0 0.9
v -0.1 0 0.9
v 0.4 0 0.9
v 0.7 0 0.9
v 0.9 0 0.9
v -0.9 0 0.8
v -0.8 0 0.8
v -0.1 0 0.8
v 0.4 0 0.8
v 0.7 0 0.8
v 0.8 0 0.8
v -0.7 0 0.7
v -0.6 0 0.7
v -0.5 0 0.7
v 0 0 0.7
v 0.2 0 0.7
v 0.8 0 0.7
v 0.9 0 0.7
v 1 0 0.7
v -0.6 0 0.6
v -0.5 0 0.6
v -0.4 0 0.6
v -0.1 0 0.6
v 0 0 0.6
v 0.1 0 0.6
v -0.7 0 0.5
v -0.6 0 0.5
v -0.5 0 0.5
v -0.4 0 0.5
v -0.3 0 0.5
v -0.2 0 0.5
v -0.1 0 0.5
v 0 0 0.5
v 0.1 0 0.5
v 0.2 0 0.5
v -0.6 0 0.4
v -0.5 0 0.4
v -0.4 0 0.4
v -0.3 0 0.4
v -0.2 0 0.4
v -0.1 0 0.4
v 0 0 0.4
v 0.1 0 0.4
v 0.8 0 0.4
v 0.9 0 0.4
v 1 0 0.4
v -0.5 0 0.3
v -0.4 0 0.3
v -0.3 0 0.3
v -0.2 0 0.3
v -0.1 0 0.3
v 0 0 0.3
v 0.1 0 0.3
v 0.2 0 0.3
v -0.5 0 0.2
v -0.4 0 0.2
v -0.3 0 0.2
v -0.2 0 0.2
v -0.1 0 0.2
v 0 0 0.2
v 0.1 0 0.2
v 0.2 0 0.2
v 0.3 0 0.2
v -1 0 0.1
v -0.9 0 0.1
v -0.8 0 0.1
v -0.6 0 0.1
v -0.5 0 0.1
v -0.4 0 0.1
v -0.3 0 0.1
v -0.2 0 0.1
v -0.1 0 0.1
v 0 0 0.1
v 0.1 0 0.1
v 0.2 0 0.1
v 0.3 0 0.1
v 0.4 0 0.1
v -0.7 0 0
v -0.6 0 0
v -0.5 0 0
v -0.4 0 0
v -0.3 0 0
v -0.2 0 0
v -0.1 0 0
v 0 0 0
v 0.1 0 0
v 0.2 0 0
v 0.3 0 0
v 0.4 0 0
v 0.5 0 0
v -0.6 0 -0.1
v -0.5 0 -0.1
v -0.4 0 -0.1
v -0.3 0 -0.1
v -0.2 0 -0.1
v -0.1 0 -0.1
v 0 0 -0.1
v 0.1 0 -0.1
v 0.2 0 -0.1
v 0.3 0 -0.1
v 0.4 0 -0.1
v 0.5 0 -0.1
v 0.6 0 -0.1
v 0.8 0 -0.1
v 0.9 0 -0.1
v 1 0 -0.1
v -0.7 0 -0.2
v -0.5 0 -0.2
v -0.3 0 -0.2
v -0.2 0 -0.2
v -0.1 0 -0.2
v 0 0 -0.2
v 0.1 0 -0.2
v 0.2 0 -0.2
v 0.3 0 -0.2
v 0.4 0 -0.2
v 0.5 0 -0.2
v 0.6 0 -0.2
v 0.7 0 -0.2
v -0.2 0 -0.3
v -0.1 0 -0.3
v 0 0 -0.3
v 0.1 0 -0.3
v 0.2 0 -0.3
v 0.3 0 -0.3
v 0.4 0 -0.3
v -1 0 -0.4
v -0.9 0 -0.4
v -0.8 0 -0.4
v -0.1 0 -0.4
v 0 0 -0.4
v 0.1 0 -0.4
v 0.2 0 -0.4
v 0.3 0 -0.4
v 0.4 0 -0.4
v 0.5 0 -0.4
v 0.6 0 -0.4
v 0.7 0 -0.4
v 0.8 0 -0.4
v 0 0 -0.5
v 0.1 0 -0.5
v 0.2 0 -0.5
v 0.4 0 -0.5
v 0.5 0 -0.5
v 0.1 0 -0.6
v 0.2 0 -0.6
v 0.4 0 -0.6
v 0.6 0 -0.6
v -1 0 -0.7
v -0.9 0 -0.7
v -0.8 0 -0.7
v 0.2 0 -0.7
v 0.4 0 -0.7
v 0.6 0 -0.7
v 0.7 0 -0.7
v -0.8 0 -0.8
v -0.7 0 -0.8
v -0.4 0 -0.8
v 0.1 0 -0.8
v 0.4 0 -0.8
v 0.7 0 -0.8
v 0.8 0 -0.8
v -0.9 0 -0.9
v -0.7 0 -0.9
v -0.4 0 -0.9
v 0.1 0 -0.9
v 0.8 0 -0.9
v 0.9 0 -0.9
v -1 0 -1
v -0.7 0 -1
v -0.4 0 -1
v 0.1 0 -1
v 0.9 0 -1
v 1 0 -1
v -1 0.1 1
v -0.1 0.1 1
v 0.4 0.1 1
v 0.7 0.1 1
v 1 0.1 1
v -1 0.1 0.9
v -0.9 0.1 0.9
v -0.1 0.1 0.9
v 0.4 0.1 0.9
v 0.7 0.1 0.9
v 0.9 0.1 0.9
v -0.9 0.1 0.8
v -0.8 0.1 0.8
v -0.1 0.1 0.8
v 0.4 0.1 0.8
v 0.7 0.1 0.8
v 0.8 0.1 0.8
v -0.7 0.1 0.7
v -0.6 0.1 0.7
v -0.5 0.1 0.7
v 0 0.1 0.7
v 0.2 0.1 0.7
v 0.8 0.1 0.7
v 0.9 0.1 0.7
v 1 0.1 0.7
v -0.6 0.1 0.6
v -0.5 0.1 0.6
v -0.4 0.1 0.6
v -0.1 0.1 0.6
v 0 0.1 0.6
v 0.1 0.1 0.6
v -0.7 0.1 0.5
v -0.6 0.1 0.5
v -0.5 0.1 0.5
v -0.4 0.1 0.5
v -0.3 0.1 0.5
v -0.2 0.1 0.5
v -0.1 0.1 0.5
v 0 0.1 0.5
v 0.1 0.1 0.5
v 0.2 0.1 0.5
v -0.6 0.1 0.4
v -0.5 0.1 0.4
v -0.4 0.1 0.4
v -0.3 0.1 0.4
v -0.2 0.1 0.4
v -0.1 0.1 0.4
v 0 0.1 0.4
v 0.1 0.1 0.4
v 0.8 0.1 0.4
v 0.9 0.1 0.4
v 1 0.1 0.4
v -0.5 0.1 0.3
v -0.4 0.1 0.3
v -0.3 0.1 0.3
v -0.2 0.1 0.3
v -0.1 0.1 0.3
v 0 0.1 0.3
v 0.1 0.1 0.3
v 0.2 0.1 0.3
v -0.5 0.1 0.2
v -0.4 0.1 0.2
v -0.3 0.1 0.2
v -0.2 0.1 0.2
v -0.1 0.1 0.2
v 0 0.1 0.2
v 0.1 0.1 0.2
v 0.2 0.1 0.2
v 0.3 0.1 0.2
v -1 0.1 0.1
v -0.9 0.1 0.1
v -0.8 0.1 0.1
v -0.6 0.1 0.1
v -0.5 0.1 0.1
v -0.4 0.1 0.1
v -0.3 0.1 0.1
v -0.2 0.1 0.1
v -0.1 0.1 0.1
v 0 0.1 0.1
v 0.1 0.1 0.1
v 0.2 0.1 0.1
v 0.3 0.1 0.1
v 0.4 0.1 0.1
v -0.7 0.1 0
v -0.6 0.1 0
v -0.5 0.1 0
v -0.4 0.1 0
v -0.3 0.1 0
v -0.2 0.1 0
v -0.1 0.1 0
v 0 0.1 0
v 0.1 0.1 0
v 0.2 0.1 0
v 0.3 0.1 0
v 0.4 0.1 0
v 0.5 0.1 0
v -0.6 0.1 -0.1
v -0.5 0.1 -0.1
v -0.4 0.1 -0.1
v -0.3 0.1 -0.1
v -0.2 0.1 -0.1
v -0.1 0.1 -0.1
v 0 0.1 -0.1
v 0.1 0.1 -0.1
v 0.2 0.1 -0.1
v 0.3 0.1 -0.1
v 0.4 0.1 -0.1
v 0.5 0.1 -0.1
v 0.6 0.1 -0.1
v 0.8 0.1 -0.1
v 0.9 0.1 -0.1
v 1 0.1 -0.1
v -0.7 0.1 -0.2
v -0.5 0.1 -0.2
v -0.3 0.1 -0.2
v -0.2 0.1 -0.2
v -0.1 0.1 -0.2
v 0 0.1 -0.2
v 0.1 0.1 -0.2
v 0.2 0.1 -0.2
v 0.3 0.1 -0.2
v 0.4 0.1 -0.2
v 0.5 0.1 -0.2
v 0.6 0.1 -0.2
v 0.7 0.1 -0.2
v -0.2 0.1 -0.3
v -0.1 0.1 -0.3
v 0 0.1 -0.3
v 0.1 0.1 -0.3
v 0.2 0.1 -0.3
v 0.3 0.1 -0.3
v 0.4 0.1 -0.3
v -1 0.1 -0.4
v -0.9 0.1 -0.4
v -0.8 0.1 -0.4
v -0.1 0.1 -0.4
v 0 0.1 -0.4
v 0.1 0.1 -0.4
v 0.2 0.1 -0.4
v 0.3 0.1 -0.4
v 0.4 0.1 -0.4
v 0.5 0.1 -0.4
v 0.6 0.1 -0.4
v 0.7 0.1 -0.4
v 0.8 0.1 -0.4
v 0 0.1 -0.5
v 0.1 0.1 -0.5
v 0.2 0.1 -0.5
v 0.4 0.1 -0.5
v 0.5 0.1 -0.5
v 0.1 0.1 -0.6
v 0.2 0.1 -0.6
v 0.4 0.1 -0.6
v 0.6 0.1 -0.6
v -1 0.1 -0.7
v -0.9 0.1 -0.7
v -0.8 0.1 -0.7
v 0.2 0.1 -0.7
v 0.4 0.1 -0.7
v 0.6 0.1 -0.7
v 0.7 0.1 -0.7
v -0.8 0.1 -0.8
v -0.7 0.1 -0.8
v -0.4 0.1 -0.8
v 0.1 0.1 -0.8
v 0.4 0.1 -0.8
v 0.7 0.1 -0.8
v 0.8 0.1 -0.8
v -0.9 0.1 -0.9
v -0.7 0.1 -0.9
v -0.4 0.1 -0.9
v 0.1 0.1 -0.9
v 0.8 0.1 -0.9
v 0.9 0.1 -0.9
v -1 0.1 -1
v -0.7 0.1 -1
v -0.4 0.1 -1
v 0.1 0.1 -1
v 0.9 0.1 -1
v 1 0.1 -1

# faces
f 7/21/1 2/21/1 1/21/1
f 8/2/1 3/2/1 2/2/1
f 8/21/1 2/21/1 7/21/1
f 9/13/1 4/13/1 3/13/1
f 9/2/1 3/2/1 8/2/1
f 10/14/1 5/14/1 4/14/1
f 10/13/1 4/13/1 9/13/1
f 11/15/1 6/15/1 5/15/1
f 11/14/1 5/14/1 10/14/1
f 12/15/1 6/15/1 11/15/1
f 13/24/2 14/24/2 18/24/2
f 14/23/2 15/23/2 19/23/2
f 18/24/2 14/24/2 19/24/2
f 15/22/2 16/22/2 20/22/2
f 19/23/2 15/23/2 20/23/2
f 16/21/2 17/21/2 21/21/2
f 20/22/2 16/22/2 21/22/2
f 21/21/2 17/21/2 22/21/2
f 25/21/3 24/21/3 23/21/3
f 26/21/3 24/21/3 25/21/3
f 27/22/3 26/22/3 25/22/3
f 28/22/3 26/22/3 27/22/3
f 29/23/3 28/23/3 27/23/3
f 30/23/3 28/23/3 29/23/3
f 31/24/3 30/24/3 29/24/3
f 32/24/3 30/24/3 31/24/3
f 33/15/4 34/15/4 35/15/4
f 35/15/4 34/15/4 36/15/4
f 35/14/4 36/14/4 37/14/4
f 37/14/4 36/14/4 38/14/4
f 37/13/4 38/13/4 39/13/4
f 39/13/4 38/13/4 40/13/4
f 39/2/4 40/2/4 41/2/4
f 41/2/4 40/2/4 42/2/4
f 41/21/4 42/21/4 43/21/4
f 43/21/4 42/21/4 44/21/4
f 50/21/5 46/21/5 45/21/5
f 51/21/5 46/21/5 50/21/5
f 52/22/5 47/22/5 46/22/5
f 52/21/5 46/21/5 51/21/5
f 53/23/5 48/23/5 47/23/5
f 53/22/5 47/22/5 52/22/5
f 54/24/5 49/24/5 48/24/5
f 54/23/5 48/23/5 53/23/5
f 55/24/5 49/24/5 54/24/5
f 56/2/5 51/2/5 50/2/5
f 56/20/5 52/20/5 51/20/5
f 57/20/5 52/20/5 56/20/5
f 58/16/5 53/16/5 52/16/5
f 58/20/5 52/20/5 57/20/5
f 59/17/5 54/17/5 53/17/5
f 59/16/5 53/16/5 58/16/5
f 60/18/5 55/18/5 54/18/5
f 60/17/5 54/17/5 59/17/5
f 61/18/5 55/18/5 60/18/5
f 62/1/5 59/1/5 58/1/5
f 62/1/5 58/1/5 57/1/5
f 62/1/5 61/1/5 60/1/5
f 62/1/5 60/1/5 59/1/5
f 63/1/5 61/1/5 62/1/5
f 64/1/5 61/1/5 63/1/5
f 65/1/5 61/1/5 64/1/5
f 66/1/5 61/1/5 65/1/5
f 67/18/5 55/18/5 61/18/5
f 67/1/5 61/1/5 66/1/5
f 68/24/5 49/24/5 55/24/5
f 68/18/5 55/18/5 67/18/5
f 69/24/5 49/24/5 68/24/5
f 70/5/5 63/5/5 62/5/5
f 70/25/5 64/25/5 63/25/5
f 71/1/5 65/1/5 64/1/5
f 71/25/5 64/25/5 70/25/5
f 72/1/5 65/1/5 71/1/5
f 73/1/5 65/1/5 72/1/5
f 74/25/5 66/25/5 65/25/5
f 74/1/5 65/1/5 73/1/5
f 75/25/5 66/25/5 74/25/5
f 76/1/5 62/1/5 57/1/5
f 76/5/5 70/5/5 62/5/5
f 77/26/5 71/26/5 70/26/5
f 77/5/5 70/5/5 76/5/5
f 78/25/5 72/25/5 71/25/5
f 78/26/5 71/26/5 77/26/5
f 79/1/5 73/1/5 72/1/5
f 79/25/5 72/25/5 78/25/5
f 80/1/5 73/1/5 79/1/5
f 81/1/5 73/1/5 80/1/5
f 82/25/5 74/25/5 73/25/5
f 82/1/5 73/1/5 81/1/5
f 83/27/5 75/27/5 74/27/5
f 83/25/5 74/25/5 82/25/5
f 84/25/5 66/25/5 75/25/5
f 84/27/5 75/27/5 83/27/5
f 85/1/5 67/1/5 66/1/5
f 85/25/5 66/25/5 84/25/5
f 86/5/5 78/5/5 77/5/5
f 86/1/5 77/1/5 76/1/5
f 87/26/5 79/26/5 78/26/5
f 87/5/5 78/5/5 86/5/5
f 88/25/5 80/25/5 79/25/5
f 88/26/5 79/26/5 87/26/5
f 89/1/5 81/1/5 80/1/5
f 89/25/5 80/25/5 88/25/5
f 90/25/5 82/25/5 81/25/5
f 90/1/5 81/1/5 89/1/5
f 91/27/5 83/27/5 82/27/5
f 91/25/5 82/25/5 90/25/5
f 92/25/5 84/25/5 83/25/5
f 92/27/5 83/27/5 91/27/5
f 93/1/5 85/1/5 84/1/5
f 93/25/5 84/25/5 92/25/5
f 94/1/5 67/1/5 85/1/5
f 94/1/5 85/1/5 93/1/5
f 94/17/5 68/17/5 67/17/5
f 95/23/5 69/23/5 68/23/5
f 95/17/5 68/17/5 94/17/5
f 96/23/5 69/23/5 95/23/5
f 97/1/5 87/1/5 86/1/5
f 97/5/5 88/5/5 87/5/5
f 98/26/5 89/26/5 88/26/5
f 98/5/5 88/5/5 97/5/5
f 99/25/5 90/25/5 89/25/5
f 99/26/5 89/26/5 98/26/5
f 100/27/5 91/27/5 90/27/5
f 100/25/5 90/25/5 99/25/5
f 101/25/5 92/25/5 91/25/5
f 101/27/5 91/27/5 100/27/5
f 102/8/5 93/8/5 92/8/5
f 102/25/5 92/25/5 101/25/5
f 103/1/5 94/1/5 93/1/5
f 103/8/5 93/8/5 102/8/5
f 104/1/5 94/1/5 103/1/5
f 105/1/5 98/1/5 97/1/5
f 105/1/5 97/1/5 86/1/5
f 106/5/5 99/5/5 98/5/5
f 106/1/5 98/1/5 105/1/5
f 107/26/5 100/26/5 99/26/5
f 107/5/5 99/5/5 106/5/5
f 108/25/5 101/25/5 100/25/5
f 108/26/5 100/26/5 107/26/5
f 109/6/5 102/6/5 101/6/5
f 109/25/5 101/25/5 108/25/5
f 110/7/5 103/7/5 102/7/5
f 110/6/5 102/6/5 109/6/5
f 111/8/5 104/8/5 103/8/5
f 111/7/5 103/7/5 110/7/5
f 112/1/5 94/1/5 104/1/5
f 112/8/5 104/8/5 111/8/5
f 113/1/5 94/1/5 112/1/5
f 114/2/5 56/2/5 50/2/5
f 115/19/5 57/19/5 56/19/5
f 115/2/5 56/2/5 114/2/5
f 116/1/5 105/1/5 86/1/5
f 116/19/5 57/19/5 115/19/5
f 116/1/5 76/1/5 57/1/5
f 116/1/5 86/1/5 76/1/5
f 117/1/5 105/1/5 116/1/5
f 118/5/5 106/5/5 105/5/5
f 118/1/5 105/1/5 117/1/5
f 119/26/5 107/26/5 106/26/5
f 119/5/5 106/5/5 118/5/5
f 120/5/5 108/5/5 107/5/5
f 120/26/5 107/26/5 119/26/5
f 121/3/5 109/3/5 108/3/5
f 121/5/5 108/5/5 120/5/5
f 122/6/5 111/6/5 110/6/5
f 122/3/5 109/3/5 121/3/5
f 122/6/5 110/6/5 109/6/5
f 123/6/5 111/6/5 122/6/5
f 124/7/5 112/7/5 111/7/5
f 124/6/5 111/6/5 123/6/5
f 125/8/5 113/8/5 112/8/5
f 125/7/5 112/7/5 124/7/5
f 126/1/5 94/1/5 113/1/5
f 126/8/5 113/8/5 125/8/5
f 127/1/5 94/1/5 126/1/5
f 128/1/5 117/1/5 116/1/5
f 129/5/5 118/5/5 117/5/5
f 129/1/5 117/1/5 128/1/5
f 130/26/5 119/26/5 118/26/5
f 130/5/5 118/5/5 129/5/5
f 131/5/5 120/5/5 119/5/5
f 131/26/5 119/26/5 130/26/5
f 132/6/5 121/6/5 120/6/5
f 132/5/5 120/5/5 131/5/5
f 132/6/5 122/6/5 121/6/5
f 133/6/5 122/6/5 132/6/5
f 134/3/5 123/3/5 122/3/5
f 134/6/5 122/6/5 133/6/5
f 135/6/5 125/6/5 124/6/5
f 135/3/5 123/3/5 134/3/5
f 135/6/5 124/6/5 123/6/5
f 136/6/5 125/6/5 135/6/5
f 137/7/5 126/7/5 125/7/5
f 137/6/5 125/6/5 136/6/5
f 138/8/5 127/8/5 126/8/5
f 138/7/5 126/7/5 137/7/5
f 139/1/5 94/1/5 127/1/5
f 139/8/5 127/8/5 138/8/5
f 140/1/5 94/1/5 139/1/5
f 141/5/5 129/5/5 128/5/5
f 141/26/5 130/26/5 129/26/5
f 142/5/5 131/5/5 130/5/5
f 142/26/5 130/26/5 141/26/5
f 143/9/5 132/9/5 131/9/5
f 143/5/5 131/5/5 142/5/5
f 144/4/5 133/4/5 132/4/5
f 144/9/5 132/9/5 143/9/5
f 145/6/5 134/6/5 133/6/5
f 145/4/5 133/4/5 144/4/5
f 145/6/5 135/6/5 134/6/5
f 146/6/5 135/6/5 145/6/5
f 147/3/5 136/3/5 135/3/5
f 147/6/5 135/6/5 146/6/5
f 148/6/5 138/6/5 137/6/5
f 148/3/5 136/3/5 147/3/5
f 148/6/5 137/6/5 136/6/5
f 149/6/5 138/6/5 148/6/5
f 150/7/5 139/7/5 138/7/5
f 150/6/5 138/6/5 149/6/5
f 151/8/5 140/8/5 139/8/5
f 151/7/5 139/7/5 150/7/5
f 152/1/5 94/1/5 140/1/5
f 152/8/5 140/8/5 151/8/5
f 153/1/5 94/1/5 152/1/5
f 154/16/5 95/16/5 94/16/5
f 154/1/5 94/1/5 153/1/5
f 155/22/5 96/22/5 95/22/5
f 155/16/5 95/16/5 154/16/5
f 156/22/5 96/22/5 155/22/5
f 157/1/5 128/1/5 116/1/5
f 157/5/5 141/5/5 128/5/5
f 157/5/5 142/5/5 141/5/5
f 158/1/5 144/1/5 143/1/5
f 158/5/5 142/5/5 157/5/5
f 158/1/5 143/1/5 142/1/5
f 159/9/5 145/9/5 144/9/5
f 159/1/5 144/1/5 158/1/5
f 160/4/5 146/4/5 145/4/5
f 160/9/5 145/9/5 159/9/5
f 161/6/5 147/6/5 146/6/5
f 161/4/5 146/4/5 160/4/5
f 161/6/5 148/6/5 147/6/5
f 162/6/5 148/6/5 161/6/5
f 163/3/5 149/3/5 148/3/5
f 163/6/5 148/6/5 162/6/5
f 164/6/5 151/6/5 150/6/5
f 164/3/5 149/3/5 163/3/5
f 164/6/5 150/6/5 149/6/5
f 165/6/5 151/6/5 164/6/5
f 166/7/5 152/7/5 151/7/5
f 166/6/5 151/6/5 165/6/5
f 167/8/5 153/8/5 152/8/5
f 167/7/5 152/7/5 166/7/5
f 168/1/5 154/1/5 153/1/5
f 168/8/5 153/8/5 167/8/5
f 169/1/5 154/1/5 168/1/5
f 170/1/5 160/1/5 159/1/5
f 170/9/5 161/9/5 160/9/5
f 170/1/5 158/1/5 157/1/5
f 170/1/5 159/1/5 158/1/5
f 171/4/5 162/4/5 161/4/5
f 171/9/5 161/9/5 170/9/5
f 172/6/5 163/6/5 162/6/5
f 172/4/5 162/4/5 171/4/5
f 172/6/5 164/6/5 163/6/5
f 173/6/5 164/6/5 172/6/5
f 174/3/5 165/3/5 164/3/5
f 174/6/5 164/6/5 173/6/5
f 175/6/5 167/6/5 166/6/5
f 175/3/5 165/3/5 174/3/5
f 175/6/5 166/6/5 165/6/5
f 176/6/5 167/6/5 175/6/5
f 177/13/5 115/13/5 114/13/5
f 178/10/5 116/10/5 115/10/5
f 178/13/5 115/13/5 177/13/5
f 179/1/5 157/1/5 116/1/5
f 179/10/5 116/10/5 178/10/5
f 179/1/5 171/1/5 170/1/5
f 179/1/5 170/1/5 157/1/5
f 180/9/5 172/9/5 171/9/5
f 180/1/5 171/1/5 179/1/5
f 181/4/5 173/4/5 172/4/5
f 181/9/5 172/9/5 180/9/5
f 182/6/5 174/6/5 173/6/5
f 182/4/5 173/4/5 181/4/5
f 182/6/5 175/6/5 174/6/5
f 183/6/5 175/6/5 182/6/5
f 184/3/5 176/3/5 175/3/5
f 184/6/5 175/6/5 183/6/5
f 185/6/5 167/6/5 176/6/5
f 185/3/5 176/3/5 184/3/5
f 186/7/5 168/7/5 167/7/5
f 186/6/5 167/6/5 185/6/5
f 187/8/5 169/8/5 168/8/5
f 187/7/5 168/7/5 186/7/5
f 188/1/5 154/1/5 169/1/5
f 188/8/5 169/8/5 187/8/5
f 189/20/5 155/20/5 154/20/5
f 189/1/5 154/1/5 188/1/5
f 190/1/5 181/1/5 180/1/5
f 190/1/5 180/1/5 179/1/5
f 190/9/5 182/9/5 181/9/5
f 191/4/5 183/4/5 182/4/5
f 191/9/5 182/9/5 190/9/5
f 192/6/5 184/6/5 183/6/5
f 192/4/5 183/4/5 191/4/5
f 192/6/5 185/6/5 184/6/5
f 193/3/5 186/3/5 185/3/5
f 193/6/5 185/6/5 192/6/5
f 194/6/5 187/6/5 186/6/5
f 194/3/5 186/3/5 193/3/5
f 195/1/5 191/1/5 190/1/5
f 195/9/5 192/9/5 191/9/5
f 196/4/5 193/4/5 192/4/5
f 196/9/5 192/9/5 195/9/5
f 197/6/5 194/6/5 193/6/5
f 197/4/5 193/4/5 196/4/5
f 198/6/5 187/6/5 194/6/5
f 198/6/5 194/6/5 197/6/5
f 198/7/5 188/7/5 187/7/5
f 199/14/5 178/14/5 177/14/5
f 200/11/5 179/11/5 178/11/5
f 200/14/5 178/14/5 199/14/5
f 201/1/5 190/1/5 179/1/5
f 201/11/5 179/11/5 200/11/5
f 201/1/5 196/1/5 195/1/5
f 201/1/5 195/1/5 190/1/5
f 202/9/5 197/9/5 196/9/5
f 202/1/5 196/1/5 201/1/5
f 203/4/5 198/4/5 197/4/5
f 203/9/5 197/9/5 202/9/5
f 204/7/5 188/7/5 198/7/5
f 204/4/5 198/4/5 203/4/5
f 205/8/5 189/8/5 188/8/5
f 205/7/5 188/7/5 204/7/5
f 206/12/5 201/12/5 200/12/5
f 206/1/5 203/1/5 202/1/5
f 206/1/5 202/1/5 201/1/5
f 207/1/5 203/1/5 206/1/5
f 208/1/5 203/1/5 207/1/5
f 209/1/5 203/1/5 208/1/5
f 210/9/5 205/9/5 204/9/5
f 210/1/5 203/1/5 209/1/5
f 210/9/5 204/9/5 203/9/5
f 211/8/5 189/8/5 205/8/5
f 211/9/5 205/9/5 210/9/5
f 212/20/5 155/20/5 189/20/5
f 212/8/5 189/8/5 211/8/5
f 213/15/5 200/15/5 199/15/5
f 213/12/5 206/12/5 200/12/5
f 213/12/5 207/12/5 206/12/5
f 214/11/5 208/11/5 207/11/5
f 214/12/5 207/12/5 213/12/5
f 215/10/5 209/10/5 208/10/5
f 215/11/5 208/11/5 214/11/5
f 216/19/5 210/19/5 209/19/5
f 216/10/5 209/10/5 215/10/5
f 216/19/5 211/19/5 210/19/5
f 216/19/5 212/19/5 211/19/5
f 217/20/5 155/20/5 212/20/5
f 217/19/5 212/19/5 216/19/5
f 218/21/5 156/21/5 155/21/5
f 218/20/5 155/20/5 217/20/5
f 219/15/5 214/15/5 213/15/5
f 219/15/5 213/15/5 199/15/5
f 220/14/5 215/14/5 214/14/5
f 220/15/5 214/15/5 219/15/5
f 221/13/5 216/13/5 215/13/5
f 221/14/5 215/14/5 220/14/5
f 222/2/5 217/2/5 216/2/5
f 222/13/5 216/13/5 221/13/5
f 222/2/5 218/2/5 217/2/5
f 223/21/5 156/21/5 218/21/5
f 223/2/5 218/2/5 222/2/5
f 224/21/5 156/21/5 223/21/5
f 225/21/6 226/21/6 230/21/6
f 230/21/6 226/21/6 231/21/6
f 226/22/6 227/22/6 232/22/6
f 231/21/6 226/21/6 232/21/6
f 227/23/6 228/23/6 233/23/6
f 232/22/6 227/22/6 233/22/6
f 228/24/6 229/24/6 234/24/6
f 233/23/6 228/23/6 234/23/6
f 234/24/6 229/24/6 235/24/6
f 230/2/6 231/2/6 236/2/6
f 231/20/6 232/20/6 236/20/6
f 236/20/6 232/20/6 237/20/6
f 232/16/6 233/16/6 238/16/6
f 237/20/6 232/20/6 238/20/6
f 233/17/6 234/17/6 239/17/6
f 238/16/6 233/16/6 239/16/6
f 234/18/6 235/18/6 240/18/6
f 239/17/6 234/17/6 240/17/6
f 240/18/6 235/18/6 241/18/6
f 238/1/6 239/1/6 242/1/6
f 237/1/6 238/1/6 242/1/6
f 240/1/6 241/1/6 242/1/6
f 239/1/6 240/1/6 242/1/6
f 242/1/6 241/1/6 243/1/6
f 243/1/6 241/1/6 244/1/6
f 244/1/6 241/1/6 245/1/6
f 245/1/6 241/1/6 246/1/6
f 241/18/6 235/18/6 247/18/6
f 246/1/6 241/1/6 247/1/6
f 235/24/6 229/24/6 248/24/6
f 247/18/6 235/18/6 248/18/6
f 248/24/6 229/24/6 249/24/6
f 242/5/6 243/5/6 250/5/6
f 243/25/6 244/25/6 250/25/6
f 244/1/6 245/1/6 251/1/6
f 250/25/6 244/25/6 251/25/6
f 251/1/6 245/1/6 252/1/6
f 252/1/6 245/1/6 253/1/6
f 245/25/6 246/25/6 254/25/6
f 253/1/6 245/1/6 254/1/6
f 254/25/6 246/25/6 255/25/6
f 237/1/6 242/1/6 256/1/6
f 242/5/6 250/5/6 256/5/6
f 250/26/6 251/26/6 257/26/6
f 256/5/6 250/5/6 257/5/6
f 251/25/6 252/25/6 258/25/6
f 257/26/6 251/26/6 258/26/6
f 252/1/6 253/1/6 259/1/6
f 258/25/6 252/25/6 259/25/6
f 259/1/6 253/1/6 260/1/6
f 260/1/6 253/1/6 261/1/6
f 253/25/6 254/25/6 262/25/6
f 261/1/6 253/1/6 262/1/6
f 254/27/6 255/27/6 263/27/6
f 262/25/6 254/25/6 263/25/6
f 255/25/6 246/25/6 264/25/6
f 263/27/6 255/27/6 264/27/6
f 246/1/6 247/1/6 265/1/6
f 264/25/6 246/25/6 265/25/6
f 257/5/6 258/5/6 266/5/6
f 256/1/6 257/1/6 266/1/6
f 258/26/6 259/26/6 267/26/6
f 266/5/6 258/5/6 267/5/6
f 259/25/6 260/25/6 268/25/6
f 267/26/6 259/26/6 268/26/6
f 260/1/6 261/1/6 269/1/6
f 268/25/6 260/25/6 269/25/6
f 261/25/6 262/25/6 270/25/6
f 269/1/6 261/1/6 270/1/6
f 262/27/6 263/27/6 271/27/6
f 270/25/6 262/25/6 271/25/6
f 263/25/6 264/25/6 272/25/6
f 271/27/6 263/27/6 272/27/6
f 264/1/6 265/1/6 273/1/6
f 272/25/6 264/25/6 273/25/6
f 265/1/6 247/1/6 274/1/6
f 273/1/6 265/1/6 274/1/6
f 247/17/6 248/17/6 274/17/6
f 248/23/6 249/23/6 275/23/6
f 274/17/6 248/17/6 275/17/6
f 275/23/6 249/23/6 276/23/6
f 266/1/6 267/1/6 277/1/6
f 267/5/6 268/5/6 277/5/6
f 268/26/6 269/26/6 278/26/6
f 277/5/6 268/5/6 278/5/6
f 269/25/6 270/25/6 279/25/6
f 278/26/6 269/26/6 279/26/6
f 270/27/6 271/27/6 280/27/6
f 279/25/6 270/25/6 280/25/6
f 271/25/6 272/25/6 281/25/6
f 280/27/6 271/27/6 281/27/6
f 272/8/6 273/8/6 282/8/6
f 281/25/6 272/25/6 282/25/6
f 273/1/6 274/1/6 283/1/6
f 282/8/6 273/8/6 283/8/6
f 283/1/6 274/1/6 284/1/6
f 277/1/6 278/1/6 285/1/6
f 266/1/6 277/1/6 285/1/6
f 278/5/6 279/5/6 286/5/6
f 285/1/6 278/1/6 286/1/6
f 279/26/6 280/26/6 287/26/6
f 286/5/6 279/5/6 287/5/6
f 280/25/6 281/25/6 288/25/6
f 287/26/6 280/26/6 288/26/6
f 281/6/6 282/6/6 289/6/6
f 288/25/6 281/25/6 289/25/6
f 282/7/6 283/7/6 290/7/6
f 289/6/6 282/6/6 290/6/6
f 283/8/6 284/8/6 291/8/6
f 290/7/6 283/7/6 291/7/6
f 284/1/6 274/1/6 292/1/6
f 291/8/6 284/8/6 292/8/6
f 292/1/6 274/1/6 293/1/6
f 230/2/6 236/2/6 294/2/6
f 236/19/6 237/19/6 295/19/6
f 294/2/6 236/2/6 295/2/6
f 266/1/6 285/1/6 296/1/6
f 295/19/6 237/19/6 296/19/6
f 237/1/6 256/1/6 296/1/6
f 256/1/6 266/1/6 296/1/6
f 296/1/6 285/1/6 297/1/6
f 285/5/6 286/5/6 298/5/6
f 297/1/6 285/1/6 298/1/6
f 286/26/6 287/26/6 299/26/6
f 298/5/6 286/5/6 299/5/6
f 287/5/6 288/5/6 300/5/6
f 299/26/6 287/26/6 300/26/6
f 288/3/6 289/3/6 301/3/6
f 300/5/6 288/5/6 301/5/6
f 290/6/6 291/6/6 302/6/6
f 301/3/6 289/3/6 302/3/6
f 289/6/6 290/6/6 302/6/6
f 302/6/6 291/6/6 303/6/6
f 291/7/6 292/7/6 304/7/6
f 303/6/6 291/6/6 304/6/6
f 292/8/6 293/8/6 305/8/6
f 304/7/6 292/7/6 305/7/6
f 293/1/6 274/1/6 306/1/6
f 305/8/6 293/8/6 306/8/6
f 306/1/6 274/1/6 307/1/6
f 296/1/6 297/1/6 308/1/6
f 297/5/6 298/5/6 309/5/6
f 308/1/6 297/1/6 309/1/6
f 298/26/6 299/26/6 310/26/6
f 309/5/6 298/5/6 310/5/6
f 299/5/6 300/5/6 311/5/6
f 310/26/6 299/26/6 311/26/6
f 300/6/6 301/6/6 312/6/6
f 311/5/6 300/5/6 312/5/6
f 301/6/6 302/6/6 312/6/6
f 312/6/6 302/6/6 313/6/6
f 302/3/6 303/3/6 314/3/6
f 313/6/6 302/6/6 314/6/6
f 304/6/6 305/6/6 315/6/6
f 314/3/6 303/3/6 315/3/6
f 303/6/6 304/6/6 315/6/6
f 315/6/6 305/6/6 316/6/6
f 305/7/6 306/7/6 317/7/6
f 316/6/6 305/6/6 317/6/6
f 306/8/6 307/8/6 318/8/6
f 317/7/6 306/7/6 318/7/6
f 307/1/6 274/1/6 319/1/6
f 318/8/6 307/8/6 319/8/6
f 319/1/6 274/1/6 320/1/6
f 308/5/6 309/5/6 321/5/6
f 309/26/6 310/26/6 321/26/6
f 310/5/6 311/5/6 322/5/6
f 321/26/6 310/26/6 322/26/6
f 311/9/6 312/9/6 323/9/6
f 322/5/6 311/5/6 323/5/6
f 312/4/6 313/4/6 324/4/6
f 323/9/6 312/9/6 324/9/6
f 313/6/6 314/6/6 325/6/6
f 324/4/6 313/4/6 325/4/6
f 314/6/6 315/6/6 325/6/6
f 325/6/6 315/6/6 326/6/6
f 315/3/6 316/3/6 327/3/6
f 326/6/6 315/6/6 327/6/6
f 317/6/6 318/6/6 328/6/6
f 327/3/6 316/3/6 328/3/6
f 316/6/6 317/6/6 328/6/6
f 328/6/6 318/6/6 329/6/6
f 318/7/6 319/7/6 330/7/6
f 329/6/6 318/6/6 330/6/6
f 319/8/6 320/8/6 331/8/6
f 330/7/6 319/7/6 331/7/6
f 320/1/6 274/1/6 332/1/6
f 331/8/6 320/8/6 332/8/6
f 332/1/6 274/1/6 333/1/6
f 274/16/6 275/16/6 334/16/6
f 333/1/6 274/1/6 334/1/6
f 275/22/6 276/22/6 335/22/6
f 334/16/6 275/16/6 335/16/6
f 335/22/6 276/22/6 336/22/6
f 296/1/6 308/1/6 337/1/6
f 308/5/6 321/5/6 337/5/6
f 321/5/6 322/5/6 337/5/6
f 323/1/6 324/1/6 338/1/6
f 337/5/6 322/5/6 338/5/6
f 322/1/6 323/1/6 338/1/6
f 324/9/6 325/9/6 339/9/6
f 338/1/6 324/1/6 339/1/6
f 325/4/6 326/4/6 340/4/6
f 339/9/6 325/9/6 340/9/6
f 326/6/6 327/6/6 341/6/6
f 340/4/6 326/4/6 341/4/6
f 327/6/6 328/6/6 341/6/6
f 341/6/6 328/6/6 342/6/6
f 328/3/6 329/3/6 343/3/6
f 342/6/6 328/6/6 343/6/6
f 330/6/6 331/6/6 344/6/6
f 343/3/6 329/3/6 344/3/6
f 329/6/6 330/6/6 344/6/6
f 344/6/6 331/6/6 345/6/6
f 331/7/6 332/7/6 346/7/6
f 345/6/6 331/6/6 346/6/6
f 332/8/6 333/8/6 347/8/6
f 346/7/6 332/7/6 347/7/6
f 333/1/6 334/1/6 348/1/6
f 347/8/6 333/8/6 348/8/6
f 348/1/6 334/1/6 349/1/6
f 339/1/6 340/1/6 350/1/6
f 340/9/6 341/9/6 350/9/6
f 337/1/6 338/1/6 350/1/6
f 338/1/6 339/1/6 350/1/6
f 341/4/6 342/4/6 351/4/6
f 350/9/6 341/9/6 351/9/6
f 342/6/6 343/6/6 352/6/6
f 351/4/6 342/4/6 352/4/6
f 343/6/6 344/6/6 352/6/6
f 352/6/6 344/6/6 353/6/6
f 344/3/6 345/3/6 354/3/6
f 353/6/6 344/6/6 354/6/6
f 346/6/6 347/6/6 355/6/6
f 354/3/6 345/3/6 355/3/6
f 345/6/6 346/6/6 355/6/6
f 355/6/6 347/6/6 356/6/6
f 294/13/6 295/13/6 357/13/6
f 295/10/6 296/10/6 358/10/6
f 357/13/6 295/13/6 358/13/6
f 296/1/6 337/1/6 359/1/6
f 358/10/6 296/10/6 359/10/6
f 350/1/6 351/1/6 359/1/6
f 337/1/6 350/1/6 359/1/6
f 351/9/6 352/9/6 360/9/6
f 359/1/6 351/1/6 360/1/6
f 352/4/6 353/4/6 361/4/6
f 360/9/6 352/9/6 361/9/6
f 353/6/6 354/6/6 362/6/6
f 361/4/6 353/4/6 362/4/6
f 354/6/6 355/6/6 362/6/6
f 362/6/6 355/6/6 363/6/6
f 355/3/6 356/3/6 364/3/6
f 363/6/6 355/6/6 364/6/6
f 356/6/6 347/6/6 365/6/6
f 364/3/6 356/3/6 365/3/6
f 347/7/6 348/7/6 366/7/6
f 365/6/6 347/6/6 366/6/6
f 348/8/6 349/8/6 367/8/6
f 366/7/6 348/7/6 367/7/6
f 349/1/6 334/1/6 368/1/6
f 367/8/6 349/8/6 368/8/6
f 334/20/6 335/20/6 369/20/6
f 368/1/6 334/1/6 369/1/6
f 360/1/6 361/1/6 370/1/6
f 359/1/6 360/1/6 370/1/6
f 361/9/6 362/9/6 370/9/6
f 362/4/6 363/4/6 371/4/6
f 370/9/6 362/9/6 371/9/6
f 363/6/6 364/6/6 372/6/6
f 371/4/6 363/4/6 372/4/6
f 364/6/6 365/6/6 372/6/6
f 365/3/6 366/3/6 373/3/6
f 372/6/6 365/6/6 373/6/6
f 366/6/6 367/6/6 374/6/6
f 373/3/6 366/3/6 374/3/6
f 370/1/6 371/1/6 375/1/6
f 371/9/6 372/9/6 375/9/6
f 372/4/6 373/4/6 376/4/6
f 375/9/6 372/9/6 376/9/6
f 373/6/6 374/6/6 377/6/6
f 376/4/6 373/4/6 377/4/6
f 374/6/6 367/6/6 378/6/6
f 377/6/6 374/6/6 378/6/6
f 367/7/6 368/7/6 378/7/6
f 357/14/6 358/14/6 379/14/6
f 358/11/6 359/11/6 380/11/6
f 379/14/6 358/14/6 380/14/6
f 359/1/6 370/1/6 381/1/6
f 380/11/6 359/11/6 381/11/6
f 375/1/6 376/1/6 381/1/6
f 370/1/6 375/1/6 381/1/6
f 376/9/6 377/9/6 382/9/6
f 381/1/6 376/1/6 382/1/6
f 377/4/6 378/4/6 383/4/6
f 382/9/6 377/9/6 383/9/6
f 378/7/6 368/7/6 384/7/6
f 383/4/6 378/4/6 384/4/6
f 368/8/6 369/8/6 385/8/6
f 384/7/6 368/7/6 385/7/6
f 380/12/6 381/12/6 386/12/6
f 382/1/6 383/1/6 386/1/6
f 381/1/6 382/1/6 386/1/6
f 386/1/6 383/1/6 387/1/6
f 387/1/6 383/1/6 388/1/6
f 388/1/6 383/1/6 389/1/6
f 384/9/6 385/9/6 390/9/6
f 389/1/6 383/1/6 390/1/6
f 383/9/6 384/9/6 390/9/6
f 385/8/6 369/8/6 391/8/6
f 390/9/6 385/9/6 391/9/6
f 369/20/6 335/20/6 392/20/6
f 391/8/6 369/8/6 392/8/6
f 379/15/6 380/15/6 393/15/6
f 380/12/6 386/12/6 393/12/6
f 386/12/6 387/12/6 393/12/6
f 387/11/6 388/11/6 394/11/6
f 393/12/6 387/12/6 394/12/6
f 388/10/6 389/10/6 395/10/6
f 394/11/6 388/11/6 395/11/6
f 389/19/6 390/19/6 396/19/6
f 395/10/6 389/10/6 396/10/6
f 390/19/6 391/19/6 396/19/6
f 391/19/6 392/19/6 396/19/6
f 392/20/6 335/20/6 397/20/6
f 396/19/6 392/19/6 397/19/6
f 335/21/6 336/21/6 398/21/6
f 397/20/6 335/20/6 398/20/6
f 393/15/6 394/15/6 399/15/6
f 379/15/6 393/15/6 399/15/6
f 394/14/6 395/14/6 400/14/6
f 399/15/6 394/15/6 400/15/6
f 395/13/6 396/13/6 401/13/6
f 400/14/6 395/14/6 401/14/6
f 396/2/6 397/2/6 402/2/6
f 401/13/6 396/13/6 402/13/6
f 397/2/6 398/2/6 402/2/6
f 398/21/6 336/21/6 403/21/6
f 402/2/6 398/2/6 403/2/6
f 403/21/6 336/21/6 404/21/6
