# MagicaVoxel @ Ephtracy

# group
o 

# material
mtllib shield0.mtl
usemtl palette

# normals
vn -1 0 0
vn 1 0 0
vn 0 0 1
vn 0 0 -1
vn 0 -1 0
vn 0 1 0

# texcoords
vt 0.0839844 0.5
vt 0.658203 0.5
vt 0.662109 0.5
vt 0.666016 0.5
vt 0.669922 0.5
vt 0.689453 0.5
vt 0.693359 0.5
vt 0.697266 0.5
vt 0.701172 0.5
vt 0.720703 0.5
vt 0.724609 0.5
vt 0.728516 0.5
vt 0.732422 0.5
vt 0.751953 0.5
vt 0.755859 0.5
vt 0.759766 0.5
vt 0.763672 0.5
vt 0.767578 0.5
vt 0.958984 0.5
vt 0.962891 0.5
vt 0.966797 0.5
vt 0.970703 0.5
vt 0.974609 0.5
vt 0.978516 0.5
vt 0.982422 0.5
vt 0.990234 0.5
vt 0.994141 0.5

# verts
v -1 0 1
v -1 0 0.9
v -1 0 0.1
v -1 0 -0.4
v -1 0 -0.7
v -1 0 -1
v -1 0.1 1
v -1 0.1 0.9
v -1 0.1 0.1
v -1 0.1 -0.4
v -1 0.1 -0.7
v -1 0.1 -1
v -0.9 0.1 0.9
v -0.9 0.1 0.8
v -0.9 0.1 0.1
v -0.9 0.1 -0.4
v -0.9 0.1 -0.7
v -0.9 0.1 -0.9
v -0.9 0.2 0.9
v -0.9 0.2 0.8
v -0.9 0.2 0.1
v -0.9 0.2 -0.4
v -0.9 0.2 -0.7
v -0.9 0.2 -0.9
v 0.9 0.1 0.9
v 0.9 0.1 0.7
v 0.9 0.1 0.4
v 0.9 0.1 -0.1
v 0.9 0.1 -0.9
v 0.9 0.2 0.9
v 0.9 0.2 0.7
v 0.9 0.2 0.4
v 0.9 0.2 -0.1
v 0.9 0.2 -0.9
v 1 0 1
v 1 0 0.7
v 1 0 0.4
v 1 0 -0.1
v 1 0 -1
v 1 0.1 1
v 1 0.1 0.7
v 1 0.1 0.4
v 1 0.1 -0.1
v 1 0.1 -1
v -1 0 1
v -1 0.1 1
v -0.1 0 1
v -0.1 0.1 1
v 0.4 0 1
v 0.4 0.1 1
v 0.7 0 1
v 0.7 0.1 1
v 1 0 1
v 1 0.1 1
v -0.9 0.1 0.9
v -0.9 0.2 0.9
v -0.1 0.1 0.9
v -0.1 0.2 0.9
v 0.4 0.1 0.9
v 0.4 0.2 0.9
v 0.7 0.1 0.9
v 0.7 0.2 0.9
v 0.9 0.1 0.9
v 0.9 0.2 0.9
v -0.9 0.1 -0.9
v -0.9 0.2 -0.9
v -0.7 0.1 -0.9
v -0.7 0.2 -0.9
v -0.4 0.1 -0.9
v -0.4 0.2 -0.9
v 0.1 0.1 -0.9
v 0.1 0.2 -0.9
v 0.8 0.1 -0.9
v 0.8 0.2 -0.9
v 0.9 0.1 -0.9
v 0.9 0.2 -0.9
v -1 0 -1
v -1 0.1 -1
v -0.7 0 -1
v -0.7 0.1 -1
v -0.4 0 -1
v -0.4 0.1 -1
v 0.1 0 -1
v 0.1 0.1 -1
v 0.9 0 -1
v 0.9 0.1 -1
v 1 0 -1
v 1 0.1 -1
v -1 0 1
v -0.1 0 1
v 0.4 0 1
v 0.7 0 1
v 1 0 1
v -1 0 0.9
v -0.9 0 0.9
v -0.1 0 0.9
v 0.4 0 0.9
v 0.7 0 0.9
v -0.7 0 0.7
v -0.5 0 0.7
v 0 0 0.7
v 0.2 0 0.7
v 0.7 0 0.7
v 0.9 0 0.7
v 1 0 0.7
v -0.6 0 0.6
v -0.5 0 0.6
v -0.4 0 0.6
v -0.1 0 0.6
v 0 0 0.6
v 0.1 0 0.6
v -0.7 0 0.5
v -0.6 0 0.5
v -0.5 0 0.5
v -0.4 0 0.5
v -0.3 0 0.5
v -0.2 0 0.5
v -0.1 0 0.5
v 0 0 0.5
v 0.1 0 0.5
v 0.2 0 0.5
v -0.6 0 0.4
v -0.5 0 0.4
v -0.4 0 0.4
v -0.3 0 0.4
v -0.2 0 0.4
v -0.1 0 0.4
v 0 0 0.4
v 0.9 0 0.4
v 1 0 0.4
v -0.5 0 0.3
v -0.4 0 0.3
v -0.3 0 0.3
v -0.2 0 0.3
v -0.1 0 0.3
v 0.1 0 0.3
v 0.2 0 0.3
v -0.5 0 0.2
v -0.4 0 0.2
v -0.3 0 0.2
v -0.2 0 0.2
v -0.1 0 0.2
v 0.1 0 0.2
v 0.2 0 0.2
v 0.3 0 0.2
v -1 0 0.1
v -0.9 0 0.1
v -0.6 0 0.1
v -0.5 0 0.1
v -0.4 0 0.1
v -0.3 0 0.1
v -0.2 0 0.1
v 0.2 0 0.1
v 0.3 0 0.1
v 0.4 0 0.1
v -0.7 0 0
v -0.6 0 0
v -0.5 0 0
v -0.4 0 0
v 0.3 0 0
v 0.4 0 0
v 0.5 0 0
v -0.6 0 -0.1
v -0.5 0 -0.1
v -0.3 0 -0.1
v -0.2 0 -0.1
v 0.4 0 -0.1
v 0.5 0 -0.1
v 0.6 0 -0.1
v 0.9 0 -0.1
v 1 0 -0.1
v -0.7 0 -0.2
v -0.5 0 -0.2
v -0.3 0 -0.2
v -0.2 0 -0.2
v -0.1 0 -0.2
v 0.5 0 -0.2
v 0.6 0 -0.2
v 0.7 0 -0.2
v -0.2 0 -0.3
v -0.1 0 -0.3
v 0 0 -0.3
v -1 0 -0.4
v -0.9 0 -0.4
v -0.1 0 -0.4
v 0 0 -0.4
v 0.1 0 -0.4
v 0.6 0 -0.4
v 0.7 0 -0.4
v 0.8 0 -0.4
v 0 0 -0.5
v 0.1 0 -0.5
v 0.2 0 -0.5
v 0.1 0 -0.6
v 0.2 0 -0.6
v 0.4 0 -0.6
v -1 0 -0.7
v -0.9 0 -0.7
v 0.2 0 -0.7
v 0.4 0 -0.7
v 0.7 0 -0.7
v 0.4 0 -0.8
v 0.8 0 -0.8
v -0.9 0 -0.9
v -0.7 0 -0.9
v -0.4 0 -0.9
v 0.1 0 -0.9
v 0.9 0 -0.9
v -1 0 -1
v -0.7 0 -1
v -0.4 0 -1
v 0.1 0 -1
v 0.9 0 -1
v 1 0 -1
v -1 0.1 1
v -0.1 0.1 1
v 0.4 0.1 1
v 0.7 0.1 1
v 1 0.1 1
v -1 0.1 0.9
v -0.9 0.1 0.9
v -0.1 0.1 0.9
v 0.4 0.1 0.9
v 0.7 0.1 0.9
v 0.9 0.1 0.9
v -0.9 0.1 0.8
v 0.9 0.1 0.7
v 1 0.1 0.7
v 0.9 0.1 0.4
v 1 0.1 0.4
v -1 0.1 0.1
v -0.9 0.1 0.1
v 0.9 0.1 -0.1
v 1 0.1 -0.1
v -1 0.1 -0.4
v -0.9 0.1 -0.4
v -1 0.1 -0.7
v -0.9 0.1 -0.7
v -0.9 0.1 -0.9
v -0.7 0.1 -0.9
v -0.4 0.1 -0.9
v 0.1 0.1 -0.9
v 0.8 0.1 -0.9
v 0.9 0.1 -0.9
v -1 0.1 -1
v -0.7 0.1 -1
v -0.4 0.1 -1
v 0.1 0.1 -1
v 0.9 0.1 -1
v 1 0.1 -1
v -0.9 0.2 0.9
v -0.1 0.2 0.9
v 0.4 0.2 0.9
v 0.7 0.2 0.9
v 0.9 0.2 0.9
v -0.9 0.2 0.8
v -0.8 0.2 0.8
v -0.1 0.2 0.8
v 0.4 0.2 0.8
v 0.7 0.2 0.8
v 0.8 0.2 0.8
v -0.1 0.2 0.7
v 0 0.2 0.7
v 0.1 0.2 0.7
v 0.8 0.2 0.7
v 0.9 0.2 0.7
v -0.2 0.2 0.6
v -0.1 0.2 0.6
v 0 0.2 0.6
v 0.1 0.2 0.6
v 0.2 0.2 0.6
v -0.3 0.2 0.5
v -0.2 0.2 0.5
v -0.1 0.2 0.5
v 0 0.2 0.5
v 0.1 0.2 0.5
v 0.2 0.2 0.5
v 0.3 0.2 0.5
v -0.4 0.2 0.4
v -0.3 0.2 0.4
v -0.2 0.2 0.4
v -0.1 0.2 0.4
v 0.1 0.2 0.4
v 0.2 0.2 0.4
v 0.3 0.2 0.4
v 0.4 0.2 0.4
v 0.8 0.2 0.4
v 0.9 0.2 0.4
v -0.5 0.2 0.3
v -0.4 0.2 0.3
v -0.3 0.2 0.3
v -0.2 0.2 0.3
v 0.2 0.2 0.3
v 0.3 0.2 0.3
v 0.4 0.2 0.3
v 0.5 0.2 0.3
v -0.6 0.2 0.2
v -0.5 0.2 0.2
v -0.4 0.2 0.2
v -0.3 0.2 0.2
v 0.3 0.2 0.2
v 0.4 0.2 0.2
v 0.5 0.2 0.2
v 0.6 0.2 0.2
v -0.9 0.2 0.1
v -0.8 0.2 0.1
v 0.5 0.2 0.1
v 0.6 0.2 0.1
v -0.7 0.2 0
v -0.6 0.2 0
v -0.5 0.2 0
v -0.4 0.2 0
v 0.4 0.2 0
v 0.5 0.2 0
v 0.6 0.2 0
v 0.7 0.2 0
v 0.8 0.2 -0.1
v 0.9 0.2 -0.1
v -0.5 0.2 -0.2
v -0.4 0.2 -0.2
v 0.4 0.2 -0.2
v 0.5 0.2 -0.2
v 0.6 0.2 -0.2
v 0.7 0.2 -0.2
v -0.7 0.2 -0.3
v -0.6 0.2 -0.3
v -0.4 0.2 -0.3
v -0.2 0.2 -0.3
v 0.2 0.2 -0.3
v 0.4 0.2 -0.3
v 0.7 0.2 -0.3
v 0.8 0.2 -0.3
v -0.9 0.2 -0.4
v -0.8 0.2 -0.4
v -0.6 0.2 -0.4
v -0.4 0.2 -0.4
v -0.2 0.2 -0.4
v -0.1 0.2 -0.4
v 0.1 0.2 -0.4
v 0.2 0.2 -0.4
v 0.4 0.2 -0.4
v 0.7 0.2 -0.4
v 0.8 0.2 -0.4
v -0.4 0.2 -0.5
v -0.2 0.2 -0.5
v -0.1 0.2 -0.5
v 0 0.2 -0.5
v 0.1 0.2 -0.5
v 0.2 0.2 -0.5
v 0.4 0.2 -0.5
v 0.5 0.2 -0.5
v 0.6 0.2 -0.5
v 0.7 0.2 -0.5
v -0.2 0.2 -0.6
v -0.1 0.2 -0.6
v 0 0.2 -0.6
v 0.1 0.2 -0.6
v 0.2 0.2 -0.6
v -0.9 0.2 -0.7
v -0.8 0.2 -0.7
v -0.1 0.2 -0.7
v 0 0.2 -0.7
v 0.1 0.2 -0.7
v -0.8 0.2 -0.8
v -0.7 0.2 -0.8
v -0.4 0.2 -0.8
v 0.1 0.2 -0.8
v 0.5 0.2 -0.8
v 0.6 0.2 -0.8
v 0.8 0.2 -0.8
v -0.9 0.2 -0.9
v -0.7 0.2 -0.9
v -0.4 0.2 -0.9
v 0.1 0.2 -0.9
v 0.8 0.2 -0.9
v 0.9 0.2 -0.9

# faces
f 7/2/1 2/2/1 1/2/1
f 8/6/1 3/6/1 2/6/1
f 8/2/1 2/2/1 7/2/1
f 9/7/1 4/7/1 3/7/1
f 9/6/1 3/6/1 8/6/1
f 10/8/1 5/8/1 4/8/1
f 10/7/1 4/7/1 9/7/1
f 11/9/1 6/9/1 5/9/1
f 11/8/1 5/8/1 10/8/1
f 12/9/1 6/9/1 11/9/1
f 19/15/1 14/15/1 13/15/1
f 20/10/1 15/10/1 14/10/1
f 20/15/1 14/15/1 19/15/1
f 21/11/1 16/11/1 15/11/1
f 21/10/1 15/10/1 20/10/1
f 22/12/1 17/12/1 16/12/1
f 22/11/1 16/11/1 21/11/1
f 23/13/1 18/13/1 17/13/1
f 23/12/1 17/12/1 22/12/1
f 24/13/1 18/13/1 23/13/1
f 25/18/2 26/18/2 30/18/2
f 26/17/2 27/17/2 31/17/2
f 30/18/2 26/18/2 31/18/2
f 27/16/2 28/16/2 32/16/2
f 31/17/2 27/17/2 32/17/2
f 28/15/2 29/15/2 33/15/2
f 32/16/2 28/16/2 33/16/2
f 33/15/2 29/15/2 34/15/2
f 35/5/2 36/5/2 40/5/2
f 36/4/2 37/4/2 41/4/2
f 40/5/2 36/5/2 41/5/2
f 37/3/2 38/3/2 42/3/2
f 41/4/2 37/4/2 42/4/2
f 38/2/2 39/2/2 43/2/2
f 42/3/2 38/3/2 43/3/2
f 43/2/2 39/2/2 44/2/2
f 47/2/3 46/2/3 45/2/3
f 48/2/3 46/2/3 47/2/3
f 49/3/3 48/3/3 47/3/3
f 50/3/3 48/3/3 49/3/3
f 51/4/3 50/4/3 49/4/3
f 52/4/3 50/4/3 51/4/3
f 53/5/3 52/5/3 51/5/3
f 54/5/3 52/5/3 53/5/3
f 57/15/3 56/15/3 55/15/3
f 58/15/3 56/15/3 57/15/3
f 59/16/3 58/16/3 57/16/3
f 60/16/3 58/16/3 59/16/3
f 61/17/3 60/17/3 59/17/3
f 62/17/3 60/17/3 61/17/3
f 63/18/3 62/18/3 61/18/3
f 64/18/3 62/18/3 63/18/3
f 65/13/4 66/13/4 67/13/4
f 67/13/4 66/13/4 68/13/4
f 67/12/4 68/12/4 69/12/4
f 69/12/4 68/12/4 70/12/4
f 69/11/4 70/11/4 71/11/4
f 71/11/4 70/11/4 72/11/4
f 71/10/4 72/10/4 73/10/4
f 73/10/4 72/10/4 74/10/4
f 73/15/4 74/15/4 75/15/4
f 75/15/4 74/15/4 76/15/4
f 77/9/4 78/9/4 79/9/4
f 79/9/4 78/9/4 80/9/4
f 79/8/4 80/8/4 81/8/4
f 81/8/4 80/8/4 82/8/4
f 81/7/4 82/7/4 83/7/4
f 83/7/4 82/7/4 84/7/4
f 83/6/4 84/6/4 85/6/4
f 85/6/4 84/6/4 86/6/4
f 85/2/4 86/2/4 87/2/4
f 87/2/4 86/2/4 88/2/4
f 94/2/5 90/2/5 89/2/5
f 95/2/5 90/2/5 94/2/5
f 96/3/5 91/3/5 90/3/5
f 96/2/5 90/2/5 95/2/5
f 97/4/5 92/4/5 91/4/5
f 97/3/5 91/3/5 96/3/5
f 98/5/5 93/5/5 92/5/5
f 98/4/5 92/4/5 97/4/5
f 99/1/5 97/1/5 96/1/5
f 99/1/5 96/1/5 95/1/5
f 99/1/5 98/1/5 97/1/5
f 100/1/5 98/1/5 99/1/5
f 101/1/5 98/1/5 100/1/5
f 102/1/5 98/1/5 101/1/5
f 103/5/5 93/5/5 98/5/5
f 103/1/5 98/1/5 102/1/5
f 104/5/5 93/5/5 103/5/5
f 105/5/5 93/5/5 104/5/5
f 106/26/5 100/26/5 99/26/5
f 107/1/5 101/1/5 100/1/5
f 107/26/5 100/26/5 106/26/5
f 108/1/5 101/1/5 107/1/5
f 109/1/5 101/1/5 108/1/5
f 110/26/5 102/26/5 101/26/5
f 110/1/5 101/1/5 109/1/5
f 111/26/5 102/26/5 110/26/5
f 112/1/5 99/1/5 95/1/5
f 112/26/5 106/26/5 99/26/5
f 113/1/5 107/1/5 106/1/5
f 113/26/5 106/26/5 112/26/5
f 114/26/5 108/26/5 107/26/5
f 114/1/5 107/1/5 113/1/5
f 115/1/5 109/1/5 108/1/5
f 115/26/5 108/26/5 114/26/5
f 116/1/5 109/1/5 115/1/5
f 117/1/5 109/1/5 116/1/5
f 118/26/5 110/26/5 109/26/5
f 118/1/5 109/1/5 117/1/5
f 119/1/5 111/1/5 110/1/5
f 119/26/5 110/26/5 118/26/5
f 120/26/5 102/26/5 111/26/5
f 120/1/5 111/1/5 119/1/5
f 121/1/5 103/1/5 102/1/5
f 121/26/5 102/26/5 120/26/5
f 121/1/5 104/1/5 103/1/5
f 122/26/5 114/26/5 113/26/5
f 122/1/5 113/1/5 112/1/5
f 123/1/5 115/1/5 114/1/5
f 123/26/5 114/26/5 122/26/5
f 124/26/5 116/26/5 115/26/5
f 124/1/5 115/1/5 123/1/5
f 125/1/5 117/1/5 116/1/5
f 125/26/5 116/26/5 124/26/5
f 126/26/5 118/26/5 117/26/5
f 126/1/5 117/1/5 125/1/5
f 127/1/5 119/1/5 118/1/5
f 127/26/5 118/26/5 126/26/5
f 128/26/5 120/26/5 119/26/5
f 128/1/5 119/1/5 127/1/5
f 129/1/5 104/1/5 121/1/5
f 129/4/5 105/4/5 104/4/5
f 129/1/5 121/1/5 120/1/5
f 130/4/5 105/4/5 129/4/5
f 131/1/5 123/1/5 122/1/5
f 131/26/5 124/26/5 123/26/5
f 132/1/5 125/1/5 124/1/5
f 132/26/5 124/26/5 131/26/5
f 133/26/5 126/26/5 125/26/5
f 133/1/5 125/1/5 132/1/5
f 134/1/5 127/1/5 126/1/5
f 134/26/5 126/26/5 133/26/5
f 135/26/5 128/26/5 127/26/5
f 135/1/5 127/1/5 134/1/5
f 136/26/5 120/26/5 128/26/5
f 136/26/5 128/26/5 135/26/5
f 136/1/5 129/1/5 120/1/5
f 137/1/5 129/1/5 136/1/5
f 138/1/5 132/1/5 131/1/5
f 138/1/5 131/1/5 122/1/5
f 139/26/5 133/26/5 132/26/5
f 139/1/5 132/1/5 138/1/5
f 140/1/5 134/1/5 133/1/5
f 140/26/5 133/26/5 139/26/5
f 141/26/5 135/26/5 134/26/5
f 141/1/5 134/1/5 140/1/5
f 142/1/5 136/1/5 135/1/5
f 142/26/5 135/26/5 141/26/5
f 143/26/5 137/26/5 136/26/5
f 143/1/5 136/1/5 142/1/5
f 144/1/5 129/1/5 137/1/5
f 144/26/5 137/26/5 143/26/5
f 145/1/5 129/1/5 144/1/5
f 146/6/5 95/6/5 94/6/5
f 147/1/5 138/1/5 122/1/5
f 147/6/5 95/6/5 146/6/5
f 147/1/5 112/1/5 95/1/5
f 147/1/5 122/1/5 112/1/5
f 148/1/5 138/1/5 147/1/5
f 149/26/5 139/26/5 138/26/5
f 149/1/5 138/1/5 148/1/5
f 150/1/5 140/1/5 139/1/5
f 150/26/5 139/26/5 149/26/5
f 151/26/5 141/26/5 140/26/5
f 151/1/5 140/1/5 150/1/5
f 152/1/5 143/1/5 142/1/5
f 152/26/5 141/26/5 151/26/5
f 152/1/5 142/1/5 141/1/5
f 152/1/5 144/1/5 143/1/5
f 153/26/5 145/26/5 144/26/5
f 153/1/5 144/1/5 152/1/5
f 154/1/5 129/1/5 145/1/5
f 154/26/5 145/26/5 153/26/5
f 155/1/5 129/1/5 154/1/5
f 156/1/5 148/1/5 147/1/5
f 157/26/5 149/26/5 148/26/5
f 157/1/5 148/1/5 156/1/5
f 158/1/5 150/1/5 149/1/5
f 158/26/5 149/26/5 157/26/5
f 159/26/5 151/26/5 150/26/5
f 159/1/5 150/1/5 158/1/5
f 160/1/5 153/1/5 152/1/5
f 160/1/5 152/1/5 151/1/5
f 160/1/5 154/1/5 153/1/5
f 160/26/5 155/26/5 154/26/5
f 161/1/5 129/1/5 155/1/5
f 161/26/5 155/26/5 160/26/5
f 162/1/5 129/1/5 161/1/5
f 163/1/5 158/1/5 157/1/5
f 163/26/5 157/26/5 156/26/5
f 164/26/5 159/26/5 158/26/5
f 164/1/5 158/1/5 163/1/5
f 165/26/5 151/26/5 159/26/5
f 165/26/5 159/26/5 164/26/5
f 165/1/5 160/1/5 151/1/5
f 165/1/5 161/1/5 160/1/5
f 166/1/5 161/1/5 165/1/5
f 167/26/5 162/26/5 161/26/5
f 167/1/5 161/1/5 166/1/5
f 168/1/5 129/1/5 162/1/5
f 168/26/5 162/26/5 167/26/5
f 169/1/5 129/1/5 168/1/5
f 170/3/5 130/3/5 129/3/5
f 170/1/5 129/1/5 169/1/5
f 171/3/5 130/3/5 170/3/5
f 172/1/5 156/1/5 147/1/5
f 172/26/5 164/26/5 163/26/5
f 172/26/5 163/26/5 156/26/5
f 173/1/5 165/1/5 164/1/5
f 173/26/5 164/26/5 172/26/5
f 174/26/5 166/26/5 165/26/5
f 174/1/5 165/1/5 173/1/5
f 175/1/5 167/1/5 166/1/5
f 175/26/5 166/26/5 174/26/5
f 175/1/5 168/1/5 167/1/5
f 176/1/5 168/1/5 175/1/5
f 177/26/5 169/26/5 168/26/5
f 177/1/5 168/1/5 176/1/5
f 178/1/5 170/1/5 169/1/5
f 178/26/5 169/26/5 177/26/5
f 179/1/5 170/1/5 178/1/5
f 180/1/5 174/1/5 173/1/5
f 180/26/5 176/26/5 175/26/5
f 180/1/5 173/1/5 172/1/5
f 180/1/5 175/1/5 174/1/5
f 181/1/5 177/1/5 176/1/5
f 181/26/5 176/26/5 180/26/5
f 181/1/5 178/1/5 177/1/5
f 182/1/5 178/1/5 181/1/5
f 183/7/5 147/7/5 146/7/5
f 184/1/5 180/1/5 172/1/5
f 184/7/5 147/7/5 183/7/5
f 184/1/5 172/1/5 147/1/5
f 184/1/5 181/1/5 180/1/5
f 185/26/5 182/26/5 181/26/5
f 185/1/5 181/1/5 184/1/5
f 186/1/5 178/1/5 182/1/5
f 186/26/5 182/26/5 185/26/5
f 187/1/5 178/1/5 186/1/5
f 188/26/5 179/26/5 178/26/5
f 188/1/5 178/1/5 187/1/5
f 189/1/5 170/1/5 179/1/5
f 189/26/5 179/26/5 188/26/5
f 190/1/5 170/1/5 189/1/5
f 191/1/5 185/1/5 184/1/5
f 191/26/5 187/26/5 186/26/5
f 191/1/5 186/1/5 185/1/5
f 192/1/5 188/1/5 187/1/5
f 192/26/5 187/26/5 191/26/5
f 192/1/5 189/1/5 188/1/5
f 193/1/5 189/1/5 192/1/5
f 194/1/5 192/1/5 191/1/5
f 194/26/5 193/26/5 192/26/5
f 195/1/5 189/1/5 193/1/5
f 195/26/5 193/26/5 194/26/5
f 196/1/5 189/1/5 195/1/5
f 197/8/5 184/8/5 183/8/5
f 198/1/5 191/1/5 184/1/5
f 198/8/5 184/8/5 197/8/5
f 198/1/5 194/1/5 191/1/5
f 198/1/5 195/1/5 194/1/5
f 199/26/5 196/26/5 195/26/5
f 199/1/5 195/1/5 198/1/5
f 200/1/5 189/1/5 196/1/5
f 200/26/5 196/26/5 199/26/5
f 201/26/5 190/26/5 189/26/5
f 201/1/5 189/1/5 200/1/5
f 202/1/5 200/1/5 199/1/5
f 202/1/5 199/1/5 198/1/5
f 202/26/5 201/26/5 200/26/5
f 203/1/5 170/1/5 190/1/5
f 203/26/5 201/26/5 202/26/5
f 203/26/5 190/26/5 201/26/5
f 204/1/5 202/1/5 198/1/5
f 204/9/5 198/9/5 197/9/5
f 204/1/5 203/1/5 202/1/5
f 205/1/5 203/1/5 204/1/5
f 206/1/5 203/1/5 205/1/5
f 207/1/5 203/1/5 206/1/5
f 208/2/5 171/2/5 170/2/5
f 208/1/5 203/1/5 207/1/5
f 208/1/5 170/1/5 203/1/5
f 209/9/5 204/9/5 197/9/5
f 209/9/5 205/9/5 204/9/5
f 210/8/5 206/8/5 205/8/5
f 210/9/5 205/9/5 209/9/5
f 211/7/5 207/7/5 206/7/5
f 211/8/5 206/8/5 210/8/5
f 212/6/5 208/6/5 207/6/5
f 212/7/5 207/7/5 211/7/5
f 213/2/5 171/2/5 208/2/5
f 213/6/5 208/6/5 212/6/5
f 214/2/5 171/2/5 213/2/5
f 215/2/6 216/2/6 220/2/6
f 220/2/6 216/2/6 221/2/6
f 216/3/6 217/3/6 222/3/6
f 221/2/6 216/2/6 222/2/6
f 217/4/6 218/4/6 223/4/6
f 222/3/6 217/3/6 223/3/6
f 218/5/6 219/5/6 224/5/6
f 223/4/6 218/4/6 224/4/6
f 224/5/6 219/5/6 225/5/6
f 220/6/6 221/6/6 226/6/6
f 225/5/6 219/5/6 227/5/6
f 227/5/6 219/5/6 228/5/6
f 227/4/6 228/4/6 229/4/6
f 229/4/6 228/4/6 230/4/6
f 220/6/6 226/6/6 231/6/6
f 231/6/6 226/6/6 232/6/6
f 229/3/6 230/3/6 233/3/6
f 233/3/6 230/3/6 234/3/6
f 231/7/6 232/7/6 235/7/6
f 235/7/6 232/7/6 236/7/6
f 235/8/6 236/8/6 237/8/6
f 237/8/6 236/8/6 238/8/6
f 237/9/6 238/9/6 239/9/6
f 233/2/6 234/2/6 244/2/6
f 237/9/6 239/9/6 245/9/6
f 239/9/6 240/9/6 245/9/6
f 240/8/6 241/8/6 246/8/6
f 245/9/6 240/9/6 246/9/6
f 241/7/6 242/7/6 247/7/6
f 246/8/6 241/8/6 247/8/6
f 242/6/6 243/6/6 248/6/6
f 247/7/6 242/7/6 248/7/6
f 243/6/6 244/6/6 248/6/6
f 244/2/6 234/2/6 249/2/6
f 248/6/6 244/6/6 249/6/6
f 249/2/6 234/2/6 250/2/6
f 251/15/6 252/15/6 256/15/6
f 256/15/6 252/15/6 257/15/6
f 252/16/6 253/16/6 258/16/6
f 257/15/6 252/15/6 258/15/6
f 253/17/6 254/17/6 259/17/6
f 258/16/6 253/16/6 259/16/6
f 254/18/6 255/18/6 260/18/6
f 259/17/6 254/17/6 260/17/6
f 260/18/6 255/18/6 261/18/6
f 258/14/6 259/14/6 262/14/6
f 257/14/6 258/14/6 262/14/6
f 260/14/6 261/14/6 262/14/6
f 259/14/6 260/14/6 262/14/6
f 262/14/6 261/14/6 263/14/6
f 263/14/6 261/14/6 264/14/6
f 261/18/6 255/18/6 265/18/6
f 264/14/6 261/14/6 265/14/6
f 265/18/6 255/18/6 266/18/6
f 257/14/6 262/14/6 267/14/6
f 262/27/6 263/27/6 268/27/6
f 267/14/6 262/14/6 268/14/6
f 263/23/6 264/23/6 269/23/6
f 268/27/6 263/27/6 269/27/6
f 264/14/6 265/14/6 270/14/6
f 269/23/6 264/23/6 270/23/6
f 270/14/6 265/14/6 271/14/6
f 257/14/6 267/14/6 272/14/6
f 267/27/6 268/27/6 273/27/6
f 272/14/6 267/14/6 273/14/6
f 268/24/6 269/24/6 274/24/6
f 273/27/6 268/27/6 274/27/6
f 269/21/6 270/21/6 275/21/6
f 274/24/6 269/24/6 275/24/6
f 270/23/6 271/23/6 276/23/6
f 275/21/6 270/21/6 276/21/6
f 271/14/6 265/14/6 277/14/6
f 276/23/6 271/23/6 277/23/6
f 277/14/6 265/14/6 278/14/6
f 257/14/6 272/14/6 279/14/6
f 272/27/6 273/27/6 280/27/6
f 279/14/6 272/14/6 280/14/6
f 273/24/6 274/24/6 281/24/6
f 280/27/6 273/27/6 281/27/6
f 274/23/6 275/23/6 282/23/6
f 281/24/6 274/24/6 282/24/6
f 275/22/6 276/22/6 283/22/6
f 276/21/6 277/21/6 283/21/6
f 277/23/6 278/23/6 284/23/6
f 283/21/6 277/21/6 284/21/6
f 278/14/6 265/14/6 285/14/6
f 284/23/6 278/23/6 285/23/6
f 285/14/6 265/14/6 286/14/6
f 265/17/6 266/17/6 287/17/6
f 286/14/6 265/14/6 287/14/6
f 287/17/6 266/17/6 288/17/6
f 257/14/6 279/14/6 289/14/6
f 279/27/6 280/27/6 290/27/6
f 289/14/6 279/14/6 290/14/6
f 280/25/6 281/25/6 291/25/6
f 290/27/6 280/27/6 291/27/6
f 281/23/6 282/23/6 292/23/6
f 291/25/6 281/25/6 292/25/6
f 283/22/6 284/22/6 293/22/6
f 284/20/6 285/20/6 293/20/6
f 285/23/6 286/23/6 294/23/6
f 293/20/6 285/20/6 294/20/6
f 286/14/6 287/14/6 295/14/6
f 294/23/6 286/23/6 295/23/6
f 295/14/6 287/14/6 296/14/6
f 257/14/6 289/14/6 297/14/6
f 289/27/6 290/27/6 298/27/6
f 297/14/6 289/14/6 298/14/6
f 290/25/6 291/25/6 299/25/6
f 298/27/6 290/27/6 299/27/6
f 291/24/6 292/24/6 300/24/6
f 299/25/6 291/25/6 300/25/6
f 293/21/6 294/21/6 301/21/6
f 294/20/6 295/20/6 301/20/6
f 295/23/6 296/23/6 302/23/6
f 301/20/6 295/20/6 302/20/6
f 296/14/6 287/14/6 303/14/6
f 302/23/6 296/23/6 303/23/6
f 303/14/6 287/14/6 304/14/6
f 256/10/6 257/10/6 305/10/6
f 257/14/6 297/14/6 306/14/6
f 305/10/6 257/10/6 306/10/6
f 302/20/6 303/20/6 307/20/6
f 303/23/6 304/23/6 307/23/6
f 304/14/6 287/14/6 308/14/6
f 307/23/6 304/23/6 308/23/6
f 306/14/6 297/14/6 309/14/6
f 297/27/6 298/27/6 310/27/6
f 309/14/6 297/14/6 310/14/6
f 298/25/6 299/25/6 311/25/6
f 310/27/6 298/27/6 311/27/6
f 299/24/6 300/24/6 312/24/6
f 311/25/6 299/25/6 312/25/6
f 302/20/6 307/20/6 313/20/6
f 301/21/6 302/21/6 313/21/6
f 307/19/6 308/19/6 314/19/6
f 313/20/6 307/20/6 314/20/6
f 308/14/6 287/14/6 315/14/6
f 314/19/6 308/19/6 315/19/6
f 315/14/6 287/14/6 316/14/6
f 287/16/6 288/16/6 317/16/6
f 316/14/6 287/14/6 317/14/6
f 317/16/6 288/16/6 318/16/6
f 311/24/6 312/24/6 319/24/6
f 310/25/6 311/25/6 319/25/6
f 312/24/6 300/24/6 320/24/6
f 319/24/6 312/24/6 320/24/6
f 313/21/6 314/21/6 321/21/6
f 301/21/6 313/21/6 321/21/6
f 314/19/6 315/19/6 322/19/6
f 321/21/6 314/21/6 322/21/6
f 315/23/6 316/23/6 323/23/6
f 322/19/6 315/19/6 323/19/6
f 316/14/6 317/14/6 324/14/6
f 323/23/6 316/23/6 324/23/6
f 306/14/6 309/14/6 325/14/6
f 309/27/6 310/27/6 325/27/6
f 310/25/6 319/25/6 326/25/6
f 325/27/6 310/27/6 326/27/6
f 319/25/6 320/25/6 326/25/6
f 320/24/6 300/24/6 327/24/6
f 326/25/6 320/25/6 327/25/6
f 292/23/6 282/23/6 328/23/6
f 327/24/6 300/24/6 328/24/6
f 300/24/6 292/24/6 328/24/6
f 283/22/6 293/22/6 329/22/6
f 301/21/6 321/21/6 329/21/6
f 293/21/6 301/21/6 329/21/6
f 323/19/6 324/19/6 330/19/6
f 329/21/6 321/21/6 330/21/6
f 321/19/6 322/19/6 330/19/6
f 322/19/6 323/19/6 330/19/6
f 324/14/6 317/14/6 331/14/6
f 330/19/6 324/19/6 331/19/6
f 317/15/6 318/15/6 332/15/6
f 331/14/6 317/14/6 332/14/6
f 305/11/6 306/11/6 333/11/6
f 306/14/6 325/14/6 334/14/6
f 333/11/6 306/11/6 334/11/6
f 325/14/6 326/14/6 334/14/6
f 326/27/6 327/27/6 335/27/6
f 334/14/6 326/14/6 335/14/6
f 327/25/6 328/25/6 336/25/6
f 335/27/6 327/27/6 336/27/6
f 328/23/6 282/23/6 337/23/6
f 336/25/6 328/25/6 337/25/6
f 282/23/6 275/23/6 338/23/6
f 337/23/6 282/23/6 338/23/6
f 275/22/6 283/22/6 339/22/6
f 283/22/6 329/22/6 339/22/6
f 329/19/6 330/19/6 340/19/6
f 339/22/6 329/22/6 340/22/6
f 330/19/6 331/19/6 340/19/6
f 331/19/6 332/19/6 340/19/6
f 340/19/6 332/19/6 341/19/6
f 341/19/6 332/19/6 342/19/6
f 332/15/6 318/15/6 343/15/6
f 342/19/6 332/19/6 343/19/6
f 336/27/6 337/27/6 344/27/6
f 335/14/6 336/14/6 344/14/6
f 334/14/6 335/14/6 344/14/6
f 337/24/6 338/24/6 345/24/6
f 344/27/6 337/27/6 345/27/6
f 338/23/6 275/23/6 346/23/6
f 345/24/6 338/24/6 346/24/6
f 275/22/6 339/22/6 347/22/6
f 346/23/6 275/23/6 347/23/6
f 339/21/6 340/21/6 348/21/6
f 347/22/6 339/22/6 348/22/6
f 340/23/6 341/23/6 349/23/6
f 348/21/6 340/21/6 349/21/6
f 341/19/6 342/19/6 350/19/6
f 349/23/6 341/23/6 350/23/6
f 350/19/6 342/19/6 351/19/6
f 351/19/6 342/19/6 352/19/6
f 342/14/6 343/14/6 353/14/6
f 352/19/6 342/19/6 353/19/6
f 345/27/6 346/27/6 354/27/6
f 344/14/6 345/14/6 354/14/6
f 346/24/6 347/24/6 355/24/6
f 354/27/6 346/27/6 355/27/6
f 347/21/6 348/21/6 356/21/6
f 355/24/6 347/24/6 356/24/6
f 348/23/6 349/23/6 357/23/6
f 356/21/6 348/21/6 357/21/6
f 349/14/6 350/14/6 358/14/6
f 357/23/6 349/23/6 358/23/6
f 350/14/6 351/14/6 358/14/6
f 333/12/6 334/12/6 359/12/6
f 334/14/6 344/14/6 360/14/6
f 359/12/6 334/12/6 360/12/6
f 354/14/6 355/14/6 360/14/6
f 344/14/6 354/14/6 360/14/6
f 355/27/6 356/27/6 361/27/6
f 360/14/6 355/14/6 361/14/6
f 356/23/6 357/23/6 362/23/6
f 361/27/6 356/27/6 362/27/6
f 357/14/6 358/14/6 363/14/6
f 362/23/6 357/23/6 363/23/6
f 361/14/6 362/14/6 364/14/6
f 359/13/6 360/13/6 364/13/6
f 362/14/6 363/14/6 364/14/6
f 360/14/6 361/14/6 364/14/6
f 364/14/6 363/14/6 365/14/6
f 365/14/6 363/14/6 366/14/6
f 363/14/6 358/14/6 367/14/6
f 366/14/6 363/14/6 367/14/6
f 358/14/6 351/14/6 368/14/6
f 367/14/6 358/14/6 368/14/6
f 351/19/6 352/19/6 368/19/6
f 352/14/6 353/14/6 369/14/6
f 368/19/6 352/19/6 369/19/6
f 343/15/6 318/15/6 370/15/6
f 369/14/6 353/14/6 370/14/6
f 353/14/6 343/14/6 370/14/6
f 364/13/6 365/13/6 371/13/6
f 359/13/6 364/13/6 371/13/6
f 365/12/6 366/12/6 372/12/6
f 371/13/6 365/13/6 372/13/6
f 366/11/6 367/11/6 373/11/6
f 372/12/6 366/12/6 373/12/6
f 368/10/6 369/10/6 374/10/6
f 373/11/6 367/11/6 374/11/6
f 369/10/6 370/10/6 374/10/6
f 367/10/6 368/10/6 374/10/6
f 370/15/6 318/15/6 375/15/6
f 374/10/6 370/10/6 375/10/6
f 375/15/6 318/15/6 376/15/6
