# MagicaVoxel @ Ephtracy

# group
o 

# material
mtllib shield1.mtl
usemtl palette

# normals
vn -1 0 0
vn 1 0 0
vn 0 0 1
vn 0 0 -1
vn 0 -1 0
vn 0 1 0

# texcoords
vt 0.330078 0.5
vt 0.658203 0.5
vt 0.662109 0.5
vt 0.666016 0.5
vt 0.669922 0.5
vt 0.689453 0.5
vt 0.693359 0.5
vt 0.697266 0.5
vt 0.701172 0.5
vt 0.720703 0.5
vt 0.724609 0.5
vt 0.728516 0.5
vt 0.732422 0.5
vt 0.755859 0.5
vt 0.759766 0.5
vt 0.763672 0.5
vt 0.767578 0.5
vt 0.958984 0.5
vt 0.962891 0.5
vt 0.966797 0.5
vt 0.970703 0.5
vt 0.974609 0.5
vt 0.978516 0.5
vt 0.982422 0.5
vt 0.994141 0.5

# verts
v -1 0 1
v -1 0 0.9
v -1 0 0.1
v -1 0 -0.4
v -1 0 -0.7
v -1 0 -1
v -1 0.1 1
v -1 0.1 0.9
v -1 0.1 0.1
v -1 0.1 -0.4
v -1 0.1 -0.7
v -1 0.1 -1
v 1 0 1
v 1 0 0.7
v 1 0 0.4
v 1 0 -0.1
v 1 0 -1
v 1 0.1 1
v 1 0.1 0.7
v 1 0.1 0.4
v 1 0.1 -0.1
v 1 0.1 -1
v -1 0 1
v -1 0.1 1
v -0.1 0 1
v -0.1 0.1 1
v 0.4 0 1
v 0.4 0.1 1
v 0.7 0 1
v 0.7 0.1 1
v 1 0 1
v 1 0.1 1
v -1 0 -1
v -1 0.1 -1
v -0.7 0 -1
v -0.7 0.1 -1
v -0.4 0 -1
v -0.4 0.1 -1
v 0.1 0 -1
v 0.1 0.1 -1
v 0.9 0 -1
v 0.9 0.1 -1
v 1 0 -1
v 1 0.1 -1
v -1 0 1
v -0.1 0 1
v 0.4 0 1
v 0.7 0 1
v 1 0 1
v -1 0 0.9
v -0.9 0 0.9
v -0.1 0 0.9
v 0.4 0 0.9
v 0.7 0 0.9
v 0.9 0 0.9
v -0.9 0 0.8
v -0.8 0 0.8
v -0.1 0 0.8
v 0.4 0 0.8
v 0.7 0 0.8
v 0.8 0 0.8
v -0.1 0 0.7
v 0 0 0.7
v 0.1 0 0.7
v 0.8 0 0.7
v 0.9 0 0.7
v 1 0 0.7
v -0.2 0 0.6
v -0.1 0 0.6
v 0 0 0.6
v 0.1 0 0.6
v 0.2 0 0.6
v -0.3 0 0.5
v -0.2 0 0.5
v -0.1 0 0.5
v 0 0 0.5
v 0.1 0 0.5
v 0.2 0 0.5
v 0.3 0 0.5
v -0.4 0 0.4
v -0.3 0 0.4
v -0.2 0 0.4
v -0.1 0 0.4
v 0.1 0 0.4
v 0.2 0 0.4
v 0.3 0 0.4
v 0.4 0 0.4
v 0.8 0 0.4
v 0.9 0 0.4
v 1 0 0.4
v -0.5 0 0.3
v -0.4 0 0.3
v -0.3 0 0.3
v -0.2 0 0.3
v 0.2 0 0.3
v 0.3 0 0.3
v 0.4 0 0.3
v 0.5 0 0.3
v -0.6 0 0.2
v -0.5 0 0.2
v -0.4 0 0.2
v -0.3 0 0.2
v 0.3 0 0.2
v 0.4 0 0.2
v 0.5 0 0.2
v 0.6 0 0.2
v -1 0 0.1
v -0.9 0 0.1
v -0.8 0 0.1
v 0.5 0 0.1
v 0.6 0 0.1
v -0.7 0 0
v -0.6 0 0
v -0.5 0 0
v -0.4 0 0
v 0.4 0 0
v 0.5 0 0
v 0.6 0 0
v 0.7 0 0
v 0.8 0 -0.1
v 0.9 0 -0.1
v 1 0 -0.1
v -0.5 0 -0.2
v -0.4 0 -0.2
v 0.4 0 -0.2
v 0.5 0 -0.2
v 0.6 0 -0.2
v 0.7 0 -0.2
v -0.7 0 -0.3
v -0.6 0 -0.3
v -0.4 0 -0.3
v -0.2 0 -0.3
v 0.2 0 -0.3
v 0.4 0 -0.3
v 0.7 0 -0.3
v 0.8 0 -0.3
v -1 0 -0.4
v -0.9 0 -0.4
v -0.8 0 -0.4
v -0.6 0 -0.4
v -0.4 0 -0.4
v -0.2 0 -0.4
v -0.1 0 -0.4
v 0.1 0 -0.4
v 0.2 0 -0.4
v 0.4 0 -0.4
v 0.7 0 -0.4
v 0.8 0 -0.4
v -0.4 0 -0.5
v -0.2 0 -0.5
v -0.1 0 -0.5
v 0 0 -0.5
v 0.1 0 -0.5
v 0.2 0 -0.5
v 0.4 0 -0.5
v 0.5 0 -0.5
v 0.6 0 -0.5
v 0.7 0 -0.5
v -0.2 0 -0.6
v -0.1 0 -0.6
v 0 0 -0.6
v 0.1 0 -0.6
v 0.2 0 -0.6
v -1 0 -0.7
v -0.9 0 -0.7
v -0.8 0 -0.7
v -0.1 0 -0.7
v 0 0 -0.7
v 0.1 0 -0.7
v -0.8 0 -0.8
v -0.7 0 -0.8
v -0.4 0 -0.8
v 0.1 0 -0.8
v 0.5 0 -0.8
v 0.6 0 -0.8
v 0.8 0 -0.8
v -0.9 0 -0.9
v -0.7 0 -0.9
v -0.4 0 -0.9
v 0.1 0 -0.9
v 0.8 0 -0.9
v 0.9 0 -0.9
v -1 0 -1
v -0.7 0 -1
v -0.4 0 -1
v 0.1 0 -1
v 0.9 0 -1
v 1 0 -1
v -1 0.1 1
v -0.1 0.1 1
v 0.4 0.1 1
v 0.7 0.1 1
v 1 0.1 1
v -1 0.1 0.9
v -0.9 0.1 0.9
v -0.1 0.1 0.9
v 0.4 0.1 0.9
v 0.7 0.1 0.9
v 0.9 0.1 0.9
v -0.9 0.1 0.8
v -0.8 0.1 0.8
v -0.1 0.1 0.8
v 0.4 0.1 0.8
v 0.7 0.1 0.8
v 0.8 0.1 0.8
v -0.1 0.1 0.7
v 0 0.1 0.7
v 0.1 0.1 0.7
v 0.8 0.1 0.7
v 0.9 0.1 0.7
v 1 0.1 0.7
v -0.2 0.1 0.6
v -0.1 0.1 0.6
v 0 0.1 0.6
v 0.1 0.1 0.6
v 0.2 0.1 0.6
v -0.3 0.1 0.5
v -0.2 0.1 0.5
v -0.1 0.1 0.5
v 0 0.1 0.5
v 0.1 0.1 0.5
v 0.2 0.1 0.5
v 0.3 0.1 0.5
v -0.4 0.1 0.4
v -0.3 0.1 0.4
v -0.2 0.1 0.4
v -0.1 0.1 0.4
v 0.1 0.1 0.4
v 0.2 0.1 0.4
v 0.3 0.1 0.4
v 0.4 0.1 0.4
v 0.8 0.1 0.4
v 0.9 0.1 0.4
v 1 0.1 0.4
v -0.5 0.1 0.3
v -0.4 0.1 0.3
v -0.3 0.1 0.3
v -0.2 0.1 0.3
v 0.2 0.1 0.3
v 0.3 0.1 0.3
v 0.4 0.1 0.3
v 0.5 0.1 0.3
v -0.6 0.1 0.2
v -0.5 0.1 0.2
v -0.4 0.1 0.2
v -0.3 0.1 0.2
v 0.3 0.1 0.2
v 0.4 0.1 0.2
v 0.5 0.1 0.2
v 0.6 0.1 0.2
v -1 0.1 0.1
v -0.9 0.1 0.1
v -0.8 0.1 0.1
v 0.5 0.1 0.1
v 0.6 0.1 0.1
v -0.7 0.1 0
v -0.6 0.1 0
v -0.5 0.1 0
v -0.4 0.1 0
v 0.4 0.1 0
v 0.5 0.1 0
v 0.6 0.1 0
v 0.7 0.1 0
v 0.8 0.1 -0.1
v 0.9 0.1 -0.1
v 1 0.1 -0.1
v -0.5 0.1 -0.2
v -0.4 0.1 -0.2
v 0.4 0.1 -0.2
v 0.5 0.1 -0.2
v 0.6 0.1 -0.2
v 0.7 0.1 -0.2
v -0.7 0.1 -0.3
v -0.6 0.1 -0.3
v -0.4 0.1 -0.3
v -0.2 0.1 -0.3
v 0.2 0.1 -0.3
v 0.4 0.1 -0.3
v 0.7 0.1 -0.3
v 0.8 0.1 -0.3
v -1 0.1 -0.4
v -0.9 0.1 -0.4
v -0.8 0.1 -0.4
v -0.6 0.1 -0.4
v -0.4 0.1 -0.4
v -0.2 0.1 -0.4
v -0.1 0.1 -0.4
v 0.1 0.1 -0.4
v 0.2 0.1 -0.4
v 0.4 0.1 -0.4
v 0.7 0.1 -0.4
v 0.8 0.1 -0.4
v -0.4 0.1 -0.5
v -0.2 0.1 -0.5
v -0.1 0.1 -0.5
v 0 0.1 -0.5
v 0.1 0.1 -0.5
v 0.2 0.1 -0.5
v 0.4 0.1 -0.5
v 0.5 0.1 -0.5
v 0.6 0.1 -0.5
v 0.7 0.1 -0.5
v -0.2 0.1 -0.6
v -0.1 0.1 -0.6
v 0 0.1 -0.6
v 0.1 0.1 -0.6
v 0.2 0.1 -0.6
v -1 0.1 -0.7
v -0.9 0.1 -0.7
v -0.8 0.1 -0.7
v -0.1 0.1 -0.7
v 0 0.1 -0.7
v 0.1 0.1 -0.7
v -0.8 0.1 -0.8
v -0.7 0.1 -0.8
v -0.4 0.1 -0.8
v 0.1 0.1 -0.8
v 0.5 0.1 -0.8
v 0.6 0.1 -0.8
v 0.8 0.1 -0.8
v -0.9 0.1 -0.9
v -0.7 0.1 -0.9
v -0.4 0.1 -0.9
v 0.1 0.1 -0.9
v 0.8 0.1 -0.9
v 0.9 0.1 -0.9
v -1 0.1 -1
v -0.7 0.1 -1
v -0.4 0.1 -1
v 0.1 0.1 -1
v 0.9 0.1 -1
v 1 0.1 -1

# faces
f 7/2/1 2/2/1 1/2/1
f 8/6/1 3/6/1 2/6/1
f 8/2/1 2/2/1 7/2/1
f 9/7/1 4/7/1 3/7/1
f 9/6/1 3/6/1 8/6/1
f 10/8/1 5/8/1 4/8/1
f 10/7/1 4/7/1 9/7/1
f 11/9/1 6/9/1 5/9/1
f 11/8/1 5/8/1 10/8/1
f 12/9/1 6/9/1 11/9/1
f 13/5/2 14/5/2 18/5/2
f 14/4/2 15/4/2 19/4/2
f 18/5/2 14/5/2 19/5/2
f 15/3/2 16/3/2 20/3/2
f 19/4/2 15/4/2 20/4/2
f 16/2/2 17/2/2 21/2/2
f 20/3/2 16/3/2 21/3/2
f 21/2/2 17/2/2 22/2/2
f 25/2/3 24/2/3 23/2/3
f 26/2/3 24/2/3 25/2/3
f 27/3/3 26/3/3 25/3/3
f 28/3/3 26/3/3 27/3/3
f 29/4/3 28/4/3 27/4/3
f 30/4/3 28/4/3 29/4/3
f 31/5/3 30/5/3 29/5/3
f 32/5/3 30/5/3 31/5/3
f 33/9/4 34/9/4 35/9/4
f 35/9/4 34/9/4 36/9/4
f 35/8/4 36/8/4 37/8/4
f 37/8/4 36/8/4 38/8/4
f 37/7/4 38/7/4 39/7/4
f 39/7/4 38/7/4 40/7/4
f 39/6/4 40/6/4 41/6/4
f 41/6/4 40/6/4 42/6/4
f 41/2/4 42/2/4 43/2/4
f 43/2/4 42/2/4 44/2/4
f 50/2/5 46/2/5 45/2/5
f 51/2/5 46/2/5 50/2/5
f 52/3/5 47/3/5 46/3/5
f 52/2/5 46/2/5 51/2/5
f 53/4/5 48/4/5 47/4/5
f 53/3/5 47/3/5 52/3/5
f 54/5/5 49/5/5 48/5/5
f 54/4/5 48/4/5 53/4/5
f 55/5/5 49/5/5 54/5/5
f 56/6/5 51/6/5 50/6/5
f 56/14/5 52/14/5 51/14/5
f 57/14/5 52/14/5 56/14/5
f 58/15/5 53/15/5 52/15/5
f 58/14/5 52/14/5 57/14/5
f 59/16/5 54/16/5 53/16/5
f 59/15/5 53/15/5 58/15/5
f 60/17/5 55/17/5 54/17/5
f 60/16/5 54/16/5 59/16/5
f 61/17/5 55/17/5 60/17/5
f 62/1/5 59/1/5 58/1/5
f 62/1/5 58/1/5 57/1/5
f 62/1/5 61/1/5 60/1/5
f 62/1/5 60/1/5 59/1/5
f 63/1/5 61/1/5 62/1/5
f 64/1/5 61/1/5 63/1/5
f 65/17/5 55/17/5 61/17/5
f 65/1/5 61/1/5 64/1/5
f 66/5/5 49/5/5 55/5/5
f 66/17/5 55/17/5 65/17/5
f 67/5/5 49/5/5 66/5/5
f 68/1/5 62/1/5 57/1/5
f 69/25/5 63/25/5 62/25/5
f 69/1/5 62/1/5 68/1/5
f 70/22/5 64/22/5 63/22/5
f 70/25/5 63/25/5 69/25/5
f 71/1/5 65/1/5 64/1/5
f 71/22/5 64/22/5 70/22/5
f 72/1/5 65/1/5 71/1/5
f 73/1/5 68/1/5 57/1/5
f 74/25/5 69/25/5 68/25/5
f 74/1/5 68/1/5 73/1/5
f 75/23/5 70/23/5 69/23/5
f 75/25/5 69/25/5 74/25/5
f 76/20/5 71/20/5 70/20/5
f 76/23/5 70/23/5 75/23/5
f 77/22/5 72/22/5 71/22/5
f 77/20/5 71/20/5 76/20/5
f 78/1/5 65/1/5 72/1/5
f 78/22/5 72/22/5 77/22/5
f 79/1/5 65/1/5 78/1/5
f 80/1/5 73/1/5 57/1/5
f 81/25/5 74/25/5 73/25/5
f 81/1/5 73/1/5 80/1/5
f 82/23/5 75/23/5 74/23/5
f 82/25/5 74/25/5 81/25/5
f 83/22/5 76/22/5 75/22/5
f 83/23/5 75/23/5 82/23/5
f 84/21/5 77/21/5 76/21/5
f 84/20/5 78/20/5 77/20/5
f 85/22/5 79/22/5 78/22/5
f 85/20/5 78/20/5 84/20/5
f 86/1/5 65/1/5 79/1/5
f 86/22/5 79/22/5 85/22/5
f 87/1/5 65/1/5 86/1/5
f 88/16/5 66/16/5 65/16/5
f 88/1/5 65/1/5 87/1/5
f 89/4/5 67/4/5 66/4/5
f 89/16/5 66/16/5 88/16/5
f 90/4/5 67/4/5 89/4/5
f 91/1/5 80/1/5 57/1/5
f 92/25/5 81/25/5 80/25/5
f 92/1/5 80/1/5 91/1/5
f 93/24/5 82/24/5 81/24/5
f 93/25/5 81/25/5 92/25/5
f 94/22/5 83/22/5 82/22/5
f 94/24/5 82/24/5 93/24/5
f 95/21/5 85/21/5 84/21/5
f 95/19/5 86/19/5 85/19/5
f 96/22/5 87/22/5 86/22/5
f 96/19/5 86/19/5 95/19/5
f 97/1/5 88/1/5 87/1/5
f 97/22/5 87/22/5 96/22/5
f 98/1/5 88/1/5 97/1/5
f 99/1/5 91/1/5 57/1/5
f 100/25/5 92/25/5 91/25/5
f 100/1/5 91/1/5 99/1/5
f 101/24/5 93/24/5 92/24/5
f 101/25/5 92/25/5 100/25/5
f 102/23/5 94/23/5 93/23/5
f 102/24/5 93/24/5 101/24/5
f 103/20/5 96/20/5 95/20/5
f 103/19/5 97/19/5 96/19/5
f 104/22/5 98/22/5 97/22/5
f 104/19/5 97/19/5 103/19/5
f 105/1/5 88/1/5 98/1/5
f 105/22/5 98/22/5 104/22/5
f 106/1/5 88/1/5 105/1/5
f 107/6/5 56/6/5 50/6/5
f 108/10/5 57/10/5 56/10/5
f 108/6/5 56/6/5 107/6/5
f 109/1/5 99/1/5 57/1/5
f 109/10/5 57/10/5 108/10/5
f 110/19/5 105/19/5 104/19/5
f 110/22/5 106/22/5 105/22/5
f 111/1/5 88/1/5 106/1/5
f 111/22/5 106/22/5 110/22/5
f 112/1/5 99/1/5 109/1/5
f 113/25/5 100/25/5 99/25/5
f 113/1/5 99/1/5 112/1/5
f 114/24/5 101/24/5 100/24/5
f 114/25/5 100/25/5 113/25/5
f 115/23/5 102/23/5 101/23/5
f 115/24/5 101/24/5 114/24/5
f 116/19/5 110/19/5 104/19/5
f 116/20/5 104/20/5 103/20/5
f 117/18/5 111/18/5 110/18/5
f 117/19/5 110/19/5 116/19/5
f 118/1/5 88/1/5 111/1/5
f 118/18/5 111/18/5 117/18/5
f 119/1/5 88/1/5 118/1/5
f 120/15/5 89/15/5 88/15/5
f 120/1/5 88/1/5 119/1/5
f 121/3/5 90/3/5 89/3/5
f 121/15/5 89/15/5 120/15/5
f 122/3/5 90/3/5 121/3/5
f 123/23/5 115/23/5 114/23/5
f 123/24/5 114/24/5 113/24/5
f 124/23/5 102/23/5 115/23/5
f 124/23/5 115/23/5 123/23/5
f 125/20/5 117/20/5 116/20/5
f 125/20/5 116/20/5 103/20/5
f 126/18/5 118/18/5 117/18/5
f 126/20/5 117/20/5 125/20/5
f 127/22/5 119/22/5 118/22/5
f 127/18/5 118/18/5 126/18/5
f 128/1/5 120/1/5 119/1/5
f 128/22/5 119/22/5 127/22/5
f 129/1/5 112/1/5 109/1/5
f 129/25/5 113/25/5 112/25/5
f 130/24/5 123/24/5 113/24/5
f 130/25/5 113/25/5 129/25/5
f 130/24/5 124/24/5 123/24/5
f 131/23/5 102/23/5 124/23/5
f 131/24/5 124/24/5 130/24/5
f 132/22/5 83/22/5 94/22/5
f 132/23/5 102/23/5 131/23/5
f 132/23/5 94/23/5 102/23/5
f 133/21/5 95/21/5 84/21/5
f 133/20/5 125/20/5 103/20/5
f 133/20/5 103/20/5 95/20/5
f 134/18/5 128/18/5 127/18/5
f 134/20/5 125/20/5 133/20/5
f 134/18/5 126/18/5 125/18/5
f 134/18/5 127/18/5 126/18/5
f 135/1/5 120/1/5 128/1/5
f 135/18/5 128/18/5 134/18/5
f 136/14/5 121/14/5 120/14/5
f 136/1/5 120/1/5 135/1/5
f 137/7/5 108/7/5 107/7/5
f 138/11/5 109/11/5 108/11/5
f 138/7/5 108/7/5 137/7/5
f 139/1/5 129/1/5 109/1/5
f 139/11/5 109/11/5 138/11/5
f 139/1/5 130/1/5 129/1/5
f 140/25/5 131/25/5 130/25/5
f 140/1/5 130/1/5 139/1/5
f 141/24/5 132/24/5 131/24/5
f 141/25/5 131/25/5 140/25/5
f 142/22/5 83/22/5 132/22/5
f 142/24/5 132/24/5 141/24/5
f 143/22/5 76/22/5 83/22/5
f 143/22/5 83/22/5 142/22/5
f 144/21/5 84/21/5 76/21/5
f 144/21/5 133/21/5 84/21/5
f 145/18/5 134/18/5 133/18/5
f 145/21/5 133/21/5 144/21/5
f 145/18/5 136/18/5 135/18/5
f 145/18/5 135/18/5 134/18/5
f 146/18/5 136/18/5 145/18/5
f 147/18/5 136/18/5 146/18/5
f 148/14/5 121/14/5 136/14/5
f 148/18/5 136/18/5 147/18/5
f 149/25/5 142/25/5 141/25/5
f 149/1/5 141/1/5 140/1/5
f 149/1/5 140/1/5 139/1/5
f 150/23/5 143/23/5 142/23/5
f 150/25/5 142/25/5 149/25/5
f 151/22/5 76/22/5 143/22/5
f 151/23/5 143/23/5 150/23/5
f 152/21/5 144/21/5 76/21/5
f 152/22/5 76/22/5 151/22/5
f 153/20/5 145/20/5 144/20/5
f 153/21/5 144/21/5 152/21/5
f 154/22/5 146/22/5 145/22/5
f 154/20/5 145/20/5 153/20/5
f 155/18/5 147/18/5 146/18/5
f 155/22/5 146/22/5 154/22/5
f 156/18/5 147/18/5 155/18/5
f 157/18/5 147/18/5 156/18/5
f 158/1/5 148/1/5 147/1/5
f 158/18/5 147/18/5 157/18/5
f 159/25/5 151/25/5 150/25/5
f 159/1/5 150/1/5 149/1/5
f 160/23/5 152/23/5 151/23/5
f 160/25/5 151/25/5 159/25/5
f 161/20/5 153/20/5 152/20/5
f 161/23/5 152/23/5 160/23/5
f 162/22/5 154/22/5 153/22/5
f 162/20/5 153/20/5 161/20/5
f 163/1/5 155/1/5 154/1/5
f 163/22/5 154/22/5 162/22/5
f 163/1/5 156/1/5 155/1/5
f 164/8/5 138/8/5 137/8/5
f 165/12/5 139/12/5 138/12/5
f 165/8/5 138/8/5 164/8/5
f 166/1/5 160/1/5 159/1/5
f 166/12/5 139/12/5 165/12/5
f 166/1/5 149/1/5 139/1/5
f 166/1/5 159/1/5 149/1/5
f 167/25/5 161/25/5 160/25/5
f 167/1/5 160/1/5 166/1/5
f 168/22/5 162/22/5 161/22/5
f 168/25/5 161/25/5 167/25/5
f 169/1/5 163/1/5 162/1/5
f 169/22/5 162/22/5 168/22/5
f 170/13/5 166/13/5 165/13/5
f 170/1/5 168/1/5 167/1/5
f 170/1/5 169/1/5 168/1/5
f 170/1/5 167/1/5 166/1/5
f 171/1/5 169/1/5 170/1/5
f 172/1/5 169/1/5 171/1/5
f 173/1/5 163/1/5 169/1/5
f 173/1/5 169/1/5 172/1/5
f 174/1/5 156/1/5 163/1/5
f 174/1/5 163/1/5 173/1/5
f 174/18/5 157/18/5 156/18/5
f 175/1/5 158/1/5 157/1/5
f 175/18/5 157/18/5 174/18/5
f 176/14/5 121/14/5 148/14/5
f 176/1/5 158/1/5 175/1/5
f 176/1/5 148/1/5 158/1/5
f 177/13/5 171/13/5 170/13/5
f 177/9/5 165/9/5 164/9/5
f 177/13/5 170/13/5 165/13/5
f 178/12/5 172/12/5 171/12/5
f 178/13/5 171/13/5 177/13/5
f 179/11/5 173/11/5 172/11/5
f 179/12/5 172/12/5 178/12/5
f 180/10/5 175/10/5 174/10/5
f 180/11/5 173/11/5 179/11/5
f 180/10/5 176/10/5 175/10/5
f 180/10/5 174/10/5 173/10/5
f 181/14/5 121/14/5 176/14/5
f 181/10/5 176/10/5 180/10/5
f 182/2/5 122/2/5 121/2/5
f 182/14/5 121/14/5 181/14/5
f 183/9/5 178/9/5 177/9/5
f 183/9/5 177/9/5 164/9/5
f 184/8/5 179/8/5 178/8/5
f 184/9/5 178/9/5 183/9/5
f 185/7/5 180/7/5 179/7/5
f 185/8/5 179/8/5 184/8/5
f 186/6/5 181/6/5 180/6/5
f 186/7/5 180/7/5 185/7/5
f 186/6/5 182/6/5 181/6/5
f 187/2/5 122/2/5 182/2/5
f 187/6/5 182/6/5 186/6/5
f 188/2/5 122/2/5 187/2/5
f 189/2/6 190/2/6 194/2/6
f 194/2/6 190/2/6 195/2/6
f 190/3/6 191/3/6 196/3/6
f 195/2/6 190/2/6 196/2/6
f 191/4/6 192/4/6 197/4/6
f 196/3/6 191/3/6 197/3/6
f 192/5/6 193/5/6 198/5/6
f 197/4/6 192/4/6 198/4/6
f 198/5/6 193/5/6 199/5/6
f 194/6/6 195/6/6 200/6/6
f 195/14/6 196/14/6 200/14/6
f 200/14/6 196/14/6 201/14/6
f 196/15/6 197/15/6 202/15/6
f 201/14/6 196/14/6 202/14/6
f 197/16/6 198/16/6 203/16/6
f 202/15/6 197/15/6 203/15/6
f 198/17/6 199/17/6 204/17/6
f 203/16/6 198/16/6 204/16/6
f 204/17/6 199/17/6 205/17/6
f 202/1/6 203/1/6 206/1/6
f 201/1/6 202/1/6 206/1/6
f 204/1/6 205/1/6 206/1/6
f 203/1/6 204/1/6 206/1/6
f 206/1/6 205/1/6 207/1/6
f 207/1/6 205/1/6 208/1/6
f 205/17/6 199/17/6 209/17/6
f 208/1/6 205/1/6 209/1/6
f 199/5/6 193/5/6 210/5/6
f 209/17/6 199/17/6 210/17/6
f 210/5/6 193/5/6 211/5/6
f 201/1/6 206/1/6 212/1/6
f 206/25/6 207/25/6 213/25/6
f 212/1/6 206/1/6 213/1/6
f 207/22/6 208/22/6 214/22/6
f 213/25/6 207/25/6 214/25/6
f 208/1/6 209/1/6 215/1/6
f 214/22/6 208/22/6 215/22/6
f 215/1/6 209/1/6 216/1/6
f 201/1/6 212/1/6 217/1/6
f 212/25/6 213/25/6 218/25/6
f 217/1/6 212/1/6 218/1/6
f 213/23/6 214/23/6 219/23/6
f 218/25/6 213/25/6 219/25/6
f 214/20/6 215/20/6 220/20/6
f 219/23/6 214/23/6 220/23/6
f 215/22/6 216/22/6 221/22/6
f 220/20/6 215/20/6 221/20/6
f 216/1/6 209/1/6 222/1/6
f 221/22/6 216/22/6 222/22/6
f 222/1/6 209/1/6 223/1/6
f 201/1/6 217/1/6 224/1/6
f 217/25/6 218/25/6 225/25/6
f 224/1/6 217/1/6 225/1/6
f 218/23/6 219/23/6 226/23/6
f 225/25/6 218/25/6 226/25/6
f 219/22/6 220/22/6 227/22/6
f 226/23/6 219/23/6 227/23/6
f 220/21/6 221/21/6 228/21/6
f 221/20/6 222/20/6 228/20/6
f 222/22/6 223/22/6 229/22/6
f 228/20/6 222/20/6 229/20/6
f 223/1/6 209/1/6 230/1/6
f 229/22/6 223/22/6 230/22/6
f 230/1/6 209/1/6 231/1/6
f 209/16/6 210/16/6 232/16/6
f 231/1/6 209/1/6 232/1/6
f 210/4/6 211/4/6 233/4/6
f 232/16/6 210/16/6 233/16/6
f 233/4/6 211/4/6 234/4/6
f 201/1/6 224/1/6 235/1/6
f 224/25/6 225/25/6 236/25/6
f 235/1/6 224/1/6 236/1/6
f 225/24/6 226/24/6 237/24/6
f 236/25/6 225/25/6 237/25/6
f 226/22/6 227/22/6 238/22/6
f 237/24/6 226/24/6 238/24/6
f 228/21/6 229/21/6 239/21/6
f 229/19/6 230/19/6 239/19/6
f 230/22/6 231/22/6 240/22/6
f 239/19/6 230/19/6 240/19/6
f 231/1/6 232/1/6 241/1/6
f 240/22/6 231/22/6 241/22/6
f 241/1/6 232/1/6 242/1/6
f 201/1/6 235/1/6 243/1/6
f 235/25/6 236/25/6 244/25/6
f 243/1/6 235/1/6 244/1/6
f 236/24/6 237/24/6 245/24/6
f 244/25/6 236/25/6 245/25/6
f 237/23/6 238/23/6 246/23/6
f 245/24/6 237/24/6 246/24/6
f 239/20/6 240/20/6 247/20/6
f 240/19/6 241/19/6 247/19/6
f 241/22/6 242/22/6 248/22/6
f 247/19/6 241/19/6 248/19/6
f 242/1/6 232/1/6 249/1/6
f 248/22/6 242/22/6 249/22/6
f 249/1/6 232/1/6 250/1/6
f 194/6/6 200/6/6 251/6/6
f 200/10/6 201/10/6 252/10/6
f 251/6/6 200/6/6 252/6/6
f 201/1/6 243/1/6 253/1/6
f 252/10/6 201/10/6 253/10/6
f 248/19/6 249/19/6 254/19/6
f 249/22/6 250/22/6 254/22/6
f 250/1/6 232/1/6 255/1/6
f 254/22/6 250/22/6 255/22/6
f 253/1/6 243/1/6 256/1/6
f 243/25/6 244/25/6 257/25/6
f 256/1/6 243/1/6 257/1/6
f 244/24/6 245/24/6 258/24/6
f 257/25/6 244/25/6 258/25/6
f 245/23/6 246/23/6 259/23/6
f 258/24/6 245/24/6 259/24/6
f 248/19/6 254/19/6 260/19/6
f 247/20/6 248/20/6 260/20/6
f 254/18/6 255/18/6 261/18/6
f 260/19/6 254/19/6 261/19/6
f 255/1/6 232/1/6 262/1/6
f 261/18/6 255/18/6 262/18/6
f 262/1/6 232/1/6 263/1/6
f 232/15/6 233/15/6 264/15/6
f 263/1/6 232/1/6 264/1/6
f 233/3/6 234/3/6 265/3/6
f 264/15/6 233/15/6 265/15/6
f 265/3/6 234/3/6 266/3/6
f 258/23/6 259/23/6 267/23/6
f 257/24/6 258/24/6 267/24/6
f 259/23/6 246/23/6 268/23/6
f 267/23/6 259/23/6 268/23/6
f 260/20/6 261/20/6 269/20/6
f 247/20/6 260/20/6 269/20/6
f 261/18/6 262/18/6 270/18/6
f 269/20/6 261/20/6 270/20/6
f 262/22/6 263/22/6 271/22/6
f 270/18/6 262/18/6 271/18/6
f 263/1/6 264/1/6 272/1/6
f 271/22/6 263/22/6 272/22/6
f 253/1/6 256/1/6 273/1/6
f 256/25/6 257/25/6 273/25/6
f 257/24/6 267/24/6 274/24/6
f 273/25/6 257/25/6 274/25/6
f 267/24/6 268/24/6 274/24/6
f 268/23/6 246/23/6 275/23/6
f 274/24/6 268/24/6 275/24/6
f 238/22/6 227/22/6 276/22/6
f 275/23/6 246/23/6 276/23/6
f 246/23/6 238/23/6 276/23/6
f 228/21/6 239/21/6 277/21/6
f 247/20/6 269/20/6 277/20/6
f 239/20/6 247/20/6 277/20/6
f 271/18/6 272/18/6 278/18/6
f 277/20/6 269/20/6 278/20/6
f 269/18/6 270/18/6 278/18/6
f 270/18/6 271/18/6 278/18/6
f 272/1/6 264/1/6 279/1/6
f 278/18/6 272/18/6 279/18/6
f 264/14/6 265/14/6 280/14/6
f 279/1/6 264/1/6 280/1/6
f 251/7/6 252/7/6 281/7/6
f 252/11/6 253/11/6 282/11/6
f 281/7/6 252/7/6 282/7/6
f 253/1/6 273/1/6 283/1/6
f 282/11/6 253/11/6 283/11/6
f 273/1/6 274/1/6 283/1/6
f 274/25/6 275/25/6 284/25/6
f 283/1/6 274/1/6 284/1/6
f 275/24/6 276/24/6 285/24/6
f 284/25/6 275/25/6 285/25/6
f 276/22/6 227/22/6 286/22/6
f 285/24/6 276/24/6 286/24/6
f 227/22/6 220/22/6 287/22/6
f 286/22/6 227/22/6 287/22/6
f 220/21/6 228/21/6 288/21/6
f 228/21/6 277/21/6 288/21/6
f 277/18/6 278/18/6 289/18/6
f 288/21/6 277/21/6 289/21/6
f 279/18/6 280/18/6 289/18/6
f 278/18/6 279/18/6 289/18/6
f 289/18/6 280/18/6 290/18/6
f 290/18/6 280/18/6 291/18/6
f 280/14/6 265/14/6 292/14/6
f 291/18/6 280/18/6 292/18/6
f 285/25/6 286/25/6 293/25/6
f 284/1/6 285/1/6 293/1/6
f 283/1/6 284/1/6 293/1/6
f 286/23/6 287/23/6 294/23/6
f 293/25/6 286/25/6 294/25/6
f 287/22/6 220/22/6 295/22/6
f 294/23/6 287/23/6 295/23/6
f 220/21/6 288/21/6 296/21/6
f 295/22/6 220/22/6 296/22/6
f 288/20/6 289/20/6 297/20/6
f 296/21/6 288/21/6 297/21/6
f 289/22/6 290/22/6 298/22/6
f 297/20/6 289/20/6 298/20/6
f 290/18/6 291/18/6 299/18/6
f 298/22/6 290/22/6 299/22/6
f 299/18/6 291/18/6 300/18/6
f 300/18/6 291/18/6 301/18/6
f 291/1/6 292/1/6 302/1/6
f 301/18/6 291/18/6 302/18/6
f 294/25/6 295/25/6 303/25/6
f 293/1/6 294/1/6 303/1/6
f 295/23/6 296/23/6 304/23/6
f 303/25/6 295/25/6 304/25/6
f 296/20/6 297/20/6 305/20/6
f 304/23/6 296/23/6 305/23/6
f 297/22/6 298/22/6 306/22/6
f 305/20/6 297/20/6 306/20/6
f 298/1/6 299/1/6 307/1/6
f 306/22/6 298/22/6 307/22/6
f 299/1/6 300/1/6 307/1/6
f 281/8/6 282/8/6 308/8/6
f 282/12/6 283/12/6 309/12/6
f 308/8/6 282/8/6 309/8/6
f 303/1/6 304/1/6 310/1/6
f 309/12/6 283/12/6 310/12/6
f 283/1/6 293/1/6 310/1/6
f 293/1/6 303/1/6 310/1/6
f 304/25/6 305/25/6 311/25/6
f 310/1/6 304/1/6 311/1/6
f 305/22/6 306/22/6 312/22/6
f 311/25/6 305/25/6 312/25/6
f 306/1/6 307/1/6 313/1/6
f 312/22/6 306/22/6 313/22/6
f 309/13/6 310/13/6 314/13/6
f 311/1/6 312/1/6 314/1/6
f 312/1/6 313/1/6 314/1/6
f 310/1/6 311/1/6 314/1/6
f 314/1/6 313/1/6 315/1/6
f 315/1/6 313/1/6 316/1/6
f 313/1/6 307/1/6 317/1/6
f 316/1/6 313/1/6 317/1/6
f 307/1/6 300/1/6 318/1/6
f 317/1/6 307/1/6 318/1/6
f 300/18/6 301/18/6 318/18/6
f 301/1/6 302/1/6 319/1/6
f 318/18/6 301/18/6 319/18/6
f 292/14/6 265/14/6 320/14/6
f 319/1/6 302/1/6 320/1/6
f 302/1/6 292/1/6 320/1/6
f 314/13/6 315/13/6 321/13/6
f 308/9/6 309/9/6 321/9/6
f 309/13/6 314/13/6 321/13/6
f 315/12/6 316/12/6 322/12/6
f 321/13/6 315/13/6 322/13/6
f 316/11/6 317/11/6 323/11/6
f 322/12/6 316/12/6 323/12/6
f 318/10/6 319/10/6 324/10/6
f 323/11/6 317/11/6 324/11/6
f 319/10/6 320/10/6 324/10/6
f 317/10/6 318/10/6 324/10/6
f 320/14/6 265/14/6 325/14/6
f 324/10/6 320/10/6 325/10/6
f 265/2/6 266/2/6 326/2/6
f 325/14/6 265/14/6 326/14/6
f 321/9/6 322/9/6 327/9/6
f 308/9/6 321/9/6 327/9/6
f 322/8/6 323/8/6 328/8/6
f 327/9/6 322/9/6 328/9/6
f 323/7/6 324/7/6 329/7/6
f 328/8/6 323/8/6 329/8/6
f 324/6/6 325/6/6 330/6/6
f 329/7/6 324/7/6 330/7/6
f 325/6/6 326/6/6 330/6/6
f 326/2/6 266/2/6 331/2/6
f 330/6/6 326/6/6 331/6/6
f 331/2/6 266/2/6 332/2/6
